<?xml version="1.0" standalone="no"?>
<!DOCTYPE svg PUBLIC "-//W3C//DTD SVG 1.1//EN" "http://www.w3.org/Graphics/SVG/1.1/DTD/svg11.dtd">
<svg width="106mm" height="106mm" viewBox="-53 -53 106 106" xmlns="http://www.w3.org/2000/svg" version="1.1">
<title>OpenSCAD Model</title>
<path d="
M 0.322128,52.499 L 0.644241,52.496 L 0.966339,52.4911 L 1.28841,52.4842 L 1.61041,52.4753 L 1.93237,52.4644
 L 2.25426,52.4516 L 2.57605,52.4368 L 2.89774,52.42 L 3.21933,52.4012 L 3.5408,52.3804 L 3.86214,52.3577
 L 4.18332,52.3331 L 4.50435,52.3064 L 4.82521,52.2778 L 5.14589,52.2472 L 5.46638,52.2146 L 5.78665,52.1801
 L 6.10672,52.1436 L 6.42656,52.1052 L 6.74614,52.0648 L 7.06548,52.0224 L 7.38455,51.978 L 7.70334,51.9318
 L 8.02185,51.8835 L 8.34004,51.8333 L 8.65793,51.7812 L 8.97549,51.7271 L 9.29271,51.671 L 9.60959,51.613
 L 9.9261,51.5531 L 10.2422,51.4912 L 10.558,51.4274 L 10.8733,51.3616 L 11.1883,51.294 L 11.5028,51.2243
 L 11.8169,51.1528 L 12.1305,51.0793 L 12.4437,51.004 L 12.7565,50.9266 L 13.0687,50.8474 L 13.3804,50.7663
 L 13.6917,50.6832 L 14.0024,50.5982 L 14.3126,50.5114 L 14.6223,50.4226 L 14.9314,50.3319 L 15.2399,50.2394
 L 15.5479,50.1449 L 15.8553,50.0486 L 16.1621,49.9503 L 16.4683,49.8502 L 16.7738,49.7482 L 17.0788,49.6444
 L 17.3831,49.5387 L 17.6867,49.4311 L 17.9897,49.3216 L 18.292,49.2103 L 18.5936,49.0971 L 18.8945,48.9821
 L 19.1947,48.8653 L 19.4941,48.7466 L 19.7929,48.626 L 20.0909,48.5037 L 20.3881,48.3795 L 20.6846,48.2535
 L 20.9803,48.1256 L 21.2752,47.996 L 21.5693,47.8646 L 21.8625,47.7313 L 22.155,47.5963 L 22.4466,47.4594
 L 22.7374,47.3208 L 23.0273,47.1804 L 23.3164,47.0382 L 23.6046,46.8943 L 23.8919,46.7486 L 24.1783,46.6011
 L 24.4638,46.4518 L 24.7483,46.3009 L 25.032,46.1481 L 25.3146,45.9937 L 25.5964,45.8375 L 25.8772,45.6796
 L 26.157,45.5199 L 26.4358,45.3586 L 26.7136,45.1955 L 26.9904,45.0307 L 27.2662,44.8643 L 27.541,44.6961
 L 27.8147,44.5263 L 28.0874,44.3548 L 28.359,44.1816 L 28.6295,44.0068 L 28.899,43.8303 L 29.1674,43.6521
 L 29.4347,43.4724 L 29.7009,43.2909 L 29.966,43.1079 L 30.2299,42.9232 L 30.4927,42.7369 L 30.7544,42.549
 L 31.0149,42.3595 L 31.2742,42.1684 L 31.5324,41.9757 L 31.7893,41.7814 L 32.0451,41.5856 L 32.2997,41.3882
 L 32.553,41.1892 L 32.8051,40.9887 L 33.056,40.7866 L 33.3056,40.583 L 33.554,40.3779 L 33.8011,40.1713
 L 34.047,39.9631 L 34.2916,39.7535 L 34.5349,39.5423 L 34.7768,39.3297 L 35.0175,39.1155 L 35.2568,38.8999
 L 35.4949,38.6829 L 35.7316,38.4643 L 35.9669,38.2444 L 36.2009,38.023 L 36.4335,37.8001 L 36.6647,37.5759
 L 36.8946,37.3502 L 37.1231,37.1231 L 37.3502,36.8946 L 37.5759,36.6647 L 37.8001,36.4335 L 38.023,36.2009
 L 38.2444,35.9669 L 38.4643,35.7316 L 38.6829,35.4949 L 38.8999,35.2568 L 39.1155,35.0175 L 39.3297,34.7768
 L 39.5423,34.5349 L 39.7535,34.2916 L 39.9631,34.047 L 40.1713,33.8011 L 40.3779,33.554 L 40.583,33.3056
 L 40.7866,33.056 L 40.9887,32.8051 L 41.1892,32.553 L 41.3882,32.2997 L 41.5856,32.0451 L 41.7814,31.7893
 L 41.9757,31.5324 L 42.1684,31.2742 L 42.3595,31.0149 L 42.549,30.7544 L 42.7369,30.4927 L 42.9232,30.2299
 L 43.1079,29.966 L 43.2909,29.7009 L 43.4724,29.4347 L 43.6521,29.1674 L 43.8303,28.899 L 44.0068,28.6295
 L 44.1816,28.359 L 44.3548,28.0874 L 44.5263,27.8147 L 44.6961,27.541 L 44.8643,27.2662 L 45.0307,26.9904
 L 45.1955,26.7136 L 45.3586,26.4358 L 45.5199,26.157 L 45.6796,25.8772 L 45.8375,25.5964 L 45.9937,25.3146
 L 46.1481,25.032 L 46.3009,24.7483 L 46.4518,24.4638 L 46.6011,24.1783 L 46.7486,23.8919 L 46.8943,23.6046
 L 47.0382,23.3164 L 47.1804,23.0273 L 47.3208,22.7374 L 47.4594,22.4466 L 47.5963,22.155 L 47.7313,21.8625
 L 47.8646,21.5693 L 47.996,21.2752 L 48.1256,20.9803 L 48.2535,20.6846 L 48.3795,20.3881 L 48.5037,20.0909
 L 48.626,19.7929 L 48.7466,19.4941 L 48.8653,19.1947 L 48.9821,18.8945 L 49.0971,18.5936 L 49.2103,18.292
 L 49.3216,17.9897 L 49.4311,17.6867 L 49.5387,17.3831 L 49.6444,17.0788 L 49.7482,16.7738 L 49.8502,16.4683
 L 49.9503,16.1621 L 50.0486,15.8553 L 50.1449,15.5479 L 50.2394,15.2399 L 50.3319,14.9314 L 50.4226,14.6223
 L 50.5114,14.3126 L 50.5982,14.0024 L 50.6832,13.6917 L 50.7663,13.3804 L 50.8474,13.0687 L 50.9266,12.7565
 L 51.004,12.4437 L 51.0793,12.1305 L 51.1528,11.8169 L 51.2243,11.5028 L 51.294,11.1883 L 51.3616,10.8733
 L 51.4274,10.558 L 51.4912,10.2422 L 51.5531,9.9261 L 51.613,9.60959 L 51.671,9.29271 L 51.7271,8.97549
 L 51.7812,8.65793 L 51.8333,8.34004 L 51.8835,8.02185 L 51.9318,7.70334 L 51.978,7.38455 L 52.0224,7.06548
 L 52.0648,6.74614 L 52.1052,6.42656 L 52.1436,6.10672 L 52.1801,5.78665 L 52.2146,5.46638 L 52.2472,5.14589
 L 52.2778,4.82521 L 52.3064,4.50435 L 52.3331,4.18332 L 52.3577,3.86214 L 52.3804,3.5408 L 52.4012,3.21933
 L 52.42,2.89774 L 52.4368,2.57605 L 52.4516,2.25426 L 52.4644,1.93237 L 52.4753,1.61041 L 52.4842,1.28841
 L 52.4911,0.966339 L 52.496,0.644241 L 52.499,0.322128 L 52.5,-0 L 52.499,-0.322128 L 52.496,-0.644241
 L 52.4911,-0.966339 L 52.4842,-1.28841 L 52.4753,-1.61041 L 52.4644,-1.93237 L 52.4516,-2.25426 L 52.4368,-2.57605
 L 52.42,-2.89774 L 52.4012,-3.21933 L 52.3804,-3.5408 L 52.3577,-3.86214 L 52.3331,-4.18332 L 52.3064,-4.50435
 L 52.2778,-4.82521 L 52.2472,-5.14589 L 52.2146,-5.46638 L 52.1801,-5.78665 L 52.1436,-6.10672 L 52.1052,-6.42656
 L 52.0648,-6.74614 L 52.0224,-7.06548 L 51.978,-7.38455 L 51.9318,-7.70334 L 51.8835,-8.02185 L 51.8333,-8.34004
 L 51.7812,-8.65793 L 51.7271,-8.97549 L 51.671,-9.29271 L 51.613,-9.60959 L 51.5531,-9.9261 L 51.4912,-10.2422
 L 51.4274,-10.558 L 51.3616,-10.8733 L 51.294,-11.1883 L 51.2243,-11.5028 L 51.1528,-11.8169 L 51.0793,-12.1305
 L 51.004,-12.4437 L 50.9266,-12.7565 L 50.8474,-13.0687 L 50.7663,-13.3804 L 50.6832,-13.6917 L 50.5982,-14.0024
 L 50.5114,-14.3126 L 50.4226,-14.6223 L 50.3319,-14.9314 L 50.2394,-15.2399 L 50.1449,-15.5479 L 50.0486,-15.8553
 L 49.9503,-16.1621 L 49.8502,-16.4683 L 49.7482,-16.7738 L 49.6444,-17.0788 L 49.5387,-17.3831 L 49.4311,-17.6867
 L 49.3216,-17.9897 L 49.2103,-18.292 L 49.0971,-18.5936 L 48.9821,-18.8945 L 48.8653,-19.1947 L 48.7466,-19.4941
 L 48.626,-19.7929 L 48.5037,-20.0909 L 48.3795,-20.3881 L 48.2535,-20.6846 L 48.1256,-20.9803 L 47.996,-21.2752
 L 47.8646,-21.5693 L 47.7313,-21.8625 L 47.5963,-22.155 L 47.4594,-22.4466 L 47.3208,-22.7374 L 47.1804,-23.0273
 L 47.0382,-23.3164 L 46.8943,-23.6046 L 46.7486,-23.8919 L 46.6011,-24.1783 L 46.4518,-24.4638 L 46.3009,-24.7483
 L 46.1481,-25.032 L 45.9937,-25.3146 L 45.8375,-25.5964 L 45.6796,-25.8772 L 45.5199,-26.157 L 45.3586,-26.4358
 L 45.1955,-26.7136 L 45.0307,-26.9904 L 44.8643,-27.2662 L 44.6961,-27.541 L 44.5263,-27.8147 L 44.3548,-28.0874
 L 44.1816,-28.359 L 44.0068,-28.6295 L 43.8303,-28.899 L 43.6521,-29.1674 L 43.4724,-29.4347 L 43.2909,-29.7009
 L 43.1079,-29.966 L 42.9232,-30.2299 L 42.7369,-30.4927 L 42.549,-30.7544 L 42.3595,-31.0149 L 42.1684,-31.2742
 L 41.9757,-31.5324 L 41.7814,-31.7893 L 41.5856,-32.0451 L 41.3882,-32.2997 L 41.1892,-32.553 L 40.9887,-32.8051
 L 40.7866,-33.056 L 40.583,-33.3056 L 40.3779,-33.554 L 40.1713,-33.8011 L 39.9631,-34.047 L 39.7535,-34.2916
 L 39.5423,-34.5349 L 39.3297,-34.7768 L 39.1155,-35.0175 L 38.8999,-35.2568 L 38.6829,-35.4949 L 38.4643,-35.7316
 L 38.2444,-35.9669 L 38.023,-36.2009 L 37.8001,-36.4335 L 37.5759,-36.6647 L 37.3502,-36.8946 L 37.1231,-37.1231
 L 36.8946,-37.3502 L 36.6647,-37.5759 L 36.4335,-37.8001 L 36.2009,-38.023 L 35.9669,-38.2444 L 35.7316,-38.4643
 L 35.4949,-38.6829 L 35.2568,-38.8999 L 35.0175,-39.1155 L 34.7768,-39.3297 L 34.5349,-39.5423 L 34.2916,-39.7535
 L 34.047,-39.9631 L 33.8011,-40.1713 L 33.554,-40.3779 L 33.3056,-40.583 L 33.056,-40.7866 L 32.8051,-40.9887
 L 32.553,-41.1892 L 32.2997,-41.3882 L 32.0451,-41.5856 L 31.7893,-41.7814 L 31.5324,-41.9757 L 31.2742,-42.1684
 L 31.0149,-42.3595 L 30.7544,-42.549 L 30.4927,-42.7369 L 30.2299,-42.9232 L 29.966,-43.1079 L 29.7009,-43.2909
 L 29.4347,-43.4724 L 29.1674,-43.6521 L 28.899,-43.8303 L 28.6295,-44.0068 L 28.359,-44.1816 L 28.0874,-44.3548
 L 27.8147,-44.5263 L 27.541,-44.6961 L 27.2662,-44.8643 L 26.9904,-45.0307 L 26.7136,-45.1955 L 26.4358,-45.3586
 L 26.157,-45.5199 L 25.8772,-45.6796 L 25.5964,-45.8375 L 25.3146,-45.9937 L 25.032,-46.1481 L 24.7483,-46.3009
 L 24.4638,-46.4518 L 24.1783,-46.6011 L 23.8919,-46.7486 L 23.6046,-46.8943 L 23.3164,-47.0382 L 23.0273,-47.1804
 L 22.7374,-47.3208 L 22.4466,-47.4594 L 22.155,-47.5963 L 21.8625,-47.7313 L 21.5693,-47.8646 L 21.2752,-47.996
 L 20.9803,-48.1256 L 20.6846,-48.2535 L 20.3881,-48.3795 L 20.0909,-48.5037 L 19.7929,-48.626 L 19.4941,-48.7466
 L 19.1947,-48.8653 L 18.8945,-48.9821 L 18.5936,-49.0971 L 18.292,-49.2103 L 17.9897,-49.3216 L 17.6867,-49.4311
 L 17.3831,-49.5387 L 17.0788,-49.6444 L 16.7738,-49.7482 L 16.4683,-49.8502 L 16.1621,-49.9503 L 15.8553,-50.0486
 L 15.5479,-50.1449 L 15.2399,-50.2394 L 14.9314,-50.3319 L 14.6223,-50.4226 L 14.3126,-50.5114 L 14.0024,-50.5982
 L 13.6917,-50.6832 L 13.3804,-50.7663 L 13.0687,-50.8474 L 12.7565,-50.9266 L 12.4437,-51.004 L 12.1305,-51.0793
 L 11.8169,-51.1528 L 11.5028,-51.2243 L 11.1883,-51.294 L 10.8733,-51.3616 L 10.558,-51.4274 L 10.2422,-51.4912
 L 9.9261,-51.5531 L 9.60959,-51.613 L 9.29271,-51.671 L 8.97549,-51.7271 L 8.65793,-51.7812 L 8.34004,-51.8333
 L 8.02185,-51.8835 L 7.70334,-51.9318 L 7.38455,-51.978 L 7.06548,-52.0224 L 6.74614,-52.0648 L 6.42656,-52.1052
 L 6.10672,-52.1436 L 5.78665,-52.1801 L 5.46638,-52.2146 L 5.14589,-52.2472 L 4.82521,-52.2778 L 4.50435,-52.3064
 L 4.18332,-52.3331 L 3.86214,-52.3577 L 3.5408,-52.3804 L 3.21933,-52.4012 L 2.89774,-52.42 L 2.57605,-52.4368
 L 2.25426,-52.4516 L 1.93237,-52.4644 L 1.61041,-52.4753 L 1.28841,-52.4842 L 0.966339,-52.4911 L 0.644241,-52.496
 L 0.322128,-52.499 L 0,-52.5 L -0.322128,-52.499 L -0.644241,-52.496 L -0.966339,-52.4911 L -1.28841,-52.4842
 L -1.61041,-52.4753 L -1.93237,-52.4644 L -2.25426,-52.4516 L -2.57605,-52.4368 L -2.89774,-52.42 L -3.21933,-52.4012
 L -3.5408,-52.3804 L -3.86214,-52.3577 L -4.18332,-52.3331 L -4.50435,-52.3064 L -4.82521,-52.2778 L -5.14589,-52.2472
 L -5.46638,-52.2146 L -5.78665,-52.1801 L -6.10672,-52.1436 L -6.42656,-52.1052 L -6.74614,-52.0648 L -7.06548,-52.0224
 L -7.38455,-51.978 L -7.70334,-51.9318 L -8.02185,-51.8835 L -8.34004,-51.8333 L -8.65793,-51.7812 L -8.97549,-51.7271
 L -9.29271,-51.671 L -9.60959,-51.613 L -9.9261,-51.5531 L -10.2422,-51.4912 L -10.558,-51.4274 L -10.8733,-51.3616
 L -11.1883,-51.294 L -11.5028,-51.2243 L -11.8169,-51.1528 L -12.1305,-51.0793 L -12.4437,-51.004 L -12.7565,-50.9266
 L -13.0687,-50.8474 L -13.3804,-50.7663 L -13.6917,-50.6832 L -14.0024,-50.5982 L -14.3126,-50.5114 L -14.6223,-50.4226
 L -14.9314,-50.3319 L -15.2399,-50.2394 L -15.5479,-50.1449 L -15.8553,-50.0486 L -16.1621,-49.9503 L -16.4683,-49.8502
 L -16.7738,-49.7482 L -17.0788,-49.6444 L -17.3831,-49.5387 L -17.6867,-49.4311 L -17.9897,-49.3216 L -18.292,-49.2103
 L -18.5936,-49.0971 L -18.8945,-48.9821 L -19.1947,-48.8653 L -19.4941,-48.7466 L -19.7929,-48.626 L -20.0909,-48.5037
 L -20.3881,-48.3795 L -20.6846,-48.2535 L -20.9803,-48.1256 L -21.2752,-47.996 L -21.5693,-47.8646 L -21.8625,-47.7313
 L -22.155,-47.5963 L -22.4466,-47.4594 L -22.7374,-47.3208 L -23.0273,-47.1804 L -23.3164,-47.0382 L -23.6046,-46.8943
 L -23.8919,-46.7486 L -24.1783,-46.6011 L -24.4638,-46.4518 L -24.7483,-46.3009 L -25.032,-46.1481 L -25.3146,-45.9937
 L -25.5964,-45.8375 L -25.8772,-45.6796 L -26.157,-45.5199 L -26.4358,-45.3586 L -26.7136,-45.1955 L -26.9904,-45.0307
 L -27.2662,-44.8643 L -27.541,-44.6961 L -27.8147,-44.5263 L -28.0874,-44.3548 L -28.359,-44.1816 L -28.6295,-44.0068
 L -28.899,-43.8303 L -29.1674,-43.6521 L -29.4347,-43.4724 L -29.7009,-43.2909 L -29.966,-43.1079 L -30.2299,-42.9232
 L -30.4927,-42.7369 L -30.7544,-42.549 L -31.0149,-42.3595 L -31.2742,-42.1684 L -31.5324,-41.9757 L -31.7893,-41.7814
 L -32.0451,-41.5856 L -32.2997,-41.3882 L -32.553,-41.1892 L -32.8051,-40.9887 L -33.056,-40.7866 L -33.3056,-40.583
 L -33.554,-40.3779 L -33.8011,-40.1713 L -34.047,-39.9631 L -34.2916,-39.7535 L -34.5349,-39.5423 L -34.7768,-39.3297
 L -35.0175,-39.1155 L -35.2568,-38.8999 L -35.4949,-38.6829 L -35.7316,-38.4643 L -35.9669,-38.2444 L -36.2009,-38.023
 L -36.4335,-37.8001 L -36.6647,-37.5759 L -36.8946,-37.3502 L -37.1231,-37.1231 L -37.3502,-36.8946 L -37.5759,-36.6647
 L -37.8001,-36.4335 L -38.023,-36.2009 L -38.2444,-35.9669 L -38.4643,-35.7316 L -38.6829,-35.4949 L -38.8999,-35.2568
 L -39.1155,-35.0175 L -39.3297,-34.7768 L -39.5423,-34.5349 L -39.7535,-34.2916 L -39.9631,-34.047 L -40.1713,-33.8011
 L -40.3779,-33.554 L -40.583,-33.3056 L -40.7866,-33.056 L -40.9887,-32.8051 L -41.1892,-32.553 L -41.3882,-32.2997
 L -41.5856,-32.0451 L -41.7814,-31.7893 L -41.9757,-31.5324 L -42.1684,-31.2742 L -42.3595,-31.0149 L -42.549,-30.7544
 L -42.7369,-30.4927 L -42.9232,-30.2299 L -43.1079,-29.966 L -43.2909,-29.7009 L -43.4724,-29.4347 L -43.6521,-29.1674
 L -43.8303,-28.899 L -44.0068,-28.6295 L -44.1816,-28.359 L -44.3548,-28.0874 L -44.5263,-27.8147 L -44.6961,-27.541
 L -44.8643,-27.2662 L -45.0307,-26.9904 L -45.1955,-26.7136 L -45.3586,-26.4358 L -45.5199,-26.157 L -45.6796,-25.8772
 L -45.8375,-25.5964 L -45.9937,-25.3146 L -46.1481,-25.032 L -46.3009,-24.7483 L -46.4518,-24.4638 L -46.6011,-24.1783
 L -46.7486,-23.8919 L -46.8943,-23.6046 L -47.0382,-23.3164 L -47.1804,-23.0273 L -47.3208,-22.7374 L -47.4594,-22.4466
 L -47.5963,-22.155 L -47.7313,-21.8625 L -47.8646,-21.5693 L -47.996,-21.2752 L -48.1256,-20.9803 L -48.2535,-20.6846
 L -48.3795,-20.3881 L -48.5037,-20.0909 L -48.626,-19.7929 L -48.7466,-19.4941 L -48.8653,-19.1947 L -48.9821,-18.8945
 L -49.0971,-18.5936 L -49.2103,-18.292 L -49.3216,-17.9897 L -49.4311,-17.6867 L -49.5387,-17.3831 L -49.6444,-17.0788
 L -49.7482,-16.7738 L -49.8502,-16.4683 L -49.9503,-16.1621 L -50.0486,-15.8553 L -50.1449,-15.5479 L -50.2394,-15.2399
 L -50.3319,-14.9314 L -50.4226,-14.6223 L -50.5114,-14.3126 L -50.5982,-14.0024 L -50.6832,-13.6917 L -50.7663,-13.3804
 L -50.8474,-13.0687 L -50.9266,-12.7565 L -51.004,-12.4437 L -51.0793,-12.1305 L -51.1528,-11.8169 L -51.2243,-11.5028
 L -51.294,-11.1883 L -51.3616,-10.8733 L -51.4274,-10.558 L -51.4912,-10.2422 L -51.5531,-9.9261 L -51.613,-9.60959
 L -51.671,-9.29271 L -51.7271,-8.97549 L -51.7812,-8.65793 L -51.8333,-8.34004 L -51.8835,-8.02185 L -51.9318,-7.70334
 L -51.978,-7.38455 L -52.0224,-7.06548 L -52.0648,-6.74614 L -52.1052,-6.42656 L -52.1436,-6.10672 L -52.1801,-5.78665
 L -52.2146,-5.46638 L -52.2472,-5.14589 L -52.2778,-4.82521 L -52.3064,-4.50435 L -52.3331,-4.18332 L -52.3577,-3.86214
 L -52.3804,-3.5408 L -52.4012,-3.21933 L -52.42,-2.89774 L -52.4368,-2.57605 L -52.4516,-2.25426 L -52.4644,-1.93237
 L -52.4753,-1.61041 L -52.4842,-1.28841 L -52.4911,-0.966339 L -52.496,-0.644241 L -52.499,-0.322128 L -52.5,-0
 L -52.499,0.322128 L -52.496,0.644241 L -52.4911,0.966339 L -52.4842,1.28841 L -52.4753,1.61041 L -52.4644,1.93237
 L -52.4516,2.25426 L -52.4368,2.57605 L -52.42,2.89774 L -52.4012,3.21933 L -52.3804,3.5408 L -52.3577,3.86214
 L -52.3331,4.18332 L -52.3064,4.50435 L -52.2778,4.82521 L -52.2472,5.14589 L -52.2146,5.46638 L -52.1801,5.78665
 L -52.1436,6.10672 L -52.1052,6.42656 L -52.0648,6.74614 L -52.0224,7.06548 L -51.978,7.38455 L -51.9318,7.70334
 L -51.8835,8.02185 L -51.8333,8.34004 L -51.7812,8.65793 L -51.7271,8.97549 L -51.671,9.29271 L -51.613,9.60959
 L -51.5531,9.9261 L -51.4912,10.2422 L -51.4274,10.558 L -51.3616,10.8733 L -51.294,11.1883 L -51.2243,11.5028
 L -51.1528,11.8169 L -51.0793,12.1305 L -51.004,12.4437 L -50.9266,12.7565 L -50.8474,13.0687 L -50.7663,13.3804
 L -50.6832,13.6917 L -50.5982,14.0024 L -50.5114,14.3126 L -50.4226,14.6223 L -50.3319,14.9314 L -50.2394,15.2399
 L -50.1449,15.5479 L -50.0486,15.8553 L -49.9503,16.1621 L -49.8502,16.4683 L -49.7482,16.7738 L -49.6444,17.0788
 L -49.5387,17.3831 L -49.4311,17.6867 L -49.3216,17.9897 L -49.2103,18.292 L -49.0971,18.5936 L -48.9821,18.8945
 L -48.8653,19.1947 L -48.7466,19.4941 L -48.626,19.7929 L -48.5037,20.0909 L -48.3795,20.3881 L -48.2535,20.6846
 L -48.1256,20.9803 L -47.996,21.2752 L -47.8646,21.5693 L -47.7313,21.8625 L -47.5963,22.155 L -47.4594,22.4466
 L -47.3208,22.7374 L -47.1804,23.0273 L -47.0382,23.3164 L -46.8943,23.6046 L -46.7486,23.8919 L -46.6011,24.1783
 L -46.4518,24.4638 L -46.3009,24.7483 L -46.1481,25.032 L -45.9937,25.3146 L -45.8375,25.5964 L -45.6796,25.8772
 L -45.5199,26.157 L -45.3586,26.4358 L -45.1955,26.7136 L -45.0307,26.9904 L -44.8643,27.2662 L -44.6961,27.541
 L -44.5263,27.8147 L -44.3548,28.0874 L -44.1816,28.359 L -44.0068,28.6295 L -43.8303,28.899 L -43.6521,29.1674
 L -43.4724,29.4347 L -43.2909,29.7009 L -43.1079,29.966 L -42.9232,30.2299 L -42.7369,30.4927 L -42.549,30.7544
 L -42.3595,31.0149 L -42.1684,31.2742 L -41.9757,31.5324 L -41.7814,31.7893 L -41.5856,32.0451 L -41.3882,32.2997
 L -41.1892,32.553 L -40.9887,32.8051 L -40.7866,33.056 L -40.583,33.3056 L -40.3779,33.554 L -40.1713,33.8011
 L -39.9631,34.047 L -39.7535,34.2916 L -39.5423,34.5349 L -39.3297,34.7768 L -39.1155,35.0175 L -38.8999,35.2568
 L -38.6829,35.4949 L -38.4643,35.7316 L -38.2444,35.9669 L -38.023,36.2009 L -37.8001,36.4335 L -37.5759,36.6647
 L -37.3502,36.8946 L -37.1231,37.1231 L -36.8946,37.3502 L -36.6647,37.5759 L -36.4335,37.8001 L -36.2009,38.023
 L -35.9669,38.2444 L -35.7316,38.4643 L -35.4949,38.6829 L -35.2568,38.8999 L -35.0175,39.1155 L -34.7768,39.3297
 L -34.5349,39.5423 L -34.2916,39.7535 L -34.047,39.9631 L -33.8011,40.1713 L -33.554,40.3779 L -33.3056,40.583
 L -33.056,40.7866 L -32.8051,40.9887 L -32.553,41.1892 L -32.2997,41.3882 L -32.0451,41.5856 L -31.7893,41.7814
 L -31.5324,41.9757 L -31.2742,42.1684 L -31.0149,42.3595 L -30.7544,42.549 L -30.4927,42.7369 L -30.2299,42.9232
 L -29.966,43.1079 L -29.7009,43.2909 L -29.4347,43.4724 L -29.1674,43.6521 L -28.899,43.8303 L -28.6295,44.0068
 L -28.359,44.1816 L -28.0874,44.3548 L -27.8147,44.5263 L -27.541,44.6961 L -27.2662,44.8643 L -26.9904,45.0307
 L -26.7136,45.1955 L -26.4358,45.3586 L -26.157,45.5199 L -25.8772,45.6796 L -25.5964,45.8375 L -25.3146,45.9937
 L -25.032,46.1481 L -24.7483,46.3009 L -24.4638,46.4518 L -24.1783,46.6011 L -23.8919,46.7486 L -23.6046,46.8943
 L -23.3164,47.0382 L -23.0273,47.1804 L -22.7374,47.3208 L -22.4466,47.4594 L -22.155,47.5963 L -21.8625,47.7313
 L -21.5693,47.8646 L -21.2752,47.996 L -20.9803,48.1256 L -20.6846,48.2535 L -20.3881,48.3795 L -20.0909,48.5037
 L -19.7929,48.626 L -19.4941,48.7466 L -19.1947,48.8653 L -18.8945,48.9821 L -18.5936,49.0971 L -18.292,49.2103
 L -17.9897,49.3216 L -17.6867,49.4311 L -17.3831,49.5387 L -17.0788,49.6444 L -16.7738,49.7482 L -16.4683,49.8502
 L -16.1621,49.9503 L -15.8553,50.0486 L -15.5479,50.1449 L -15.2399,50.2394 L -14.9314,50.3319 L -14.6223,50.4226
 L -14.3126,50.5114 L -14.0024,50.5982 L -13.6917,50.6832 L -13.3804,50.7663 L -13.0687,50.8474 L -12.7565,50.9266
 L -12.4437,51.004 L -12.1305,51.0793 L -11.8169,51.1528 L -11.5028,51.2243 L -11.1883,51.294 L -10.8733,51.3616
 L -10.558,51.4274 L -10.2422,51.4912 L -9.9261,51.5531 L -9.60959,51.613 L -9.29271,51.671 L -8.97549,51.7271
 L -8.65793,51.7812 L -8.34004,51.8333 L -8.02185,51.8835 L -7.70334,51.9318 L -7.38455,51.978 L -7.06548,52.0224
 L -6.74614,52.0648 L -6.42656,52.1052 L -6.10672,52.1436 L -5.78665,52.1801 L -5.46638,52.2146 L -5.14589,52.2472
 L -4.82521,52.2778 L -4.50435,52.3064 L -4.18332,52.3331 L -3.86214,52.3577 L -3.5408,52.3804 L -3.21933,52.4012
 L -2.89774,52.42 L -2.57605,52.4368 L -2.25426,52.4516 L -1.93237,52.4644 L -1.61041,52.4753 L -1.28841,52.4842
 L -0.966339,52.4911 L -0.644241,52.496 L -0.322128,52.499 L 0,52.5 z
M -0.0511322,-16.6668 L -0.102249,-16.6673 L -0.153381,-16.6681 L -0.204498,-16.6692 L -0.255615,-16.6706 L -0.306717,-16.6723
 L -0.357819,-16.6743 L -0.40889,-16.6767 L -0.459946,-16.6794 L -0.511002,-16.6823 L -0.562027,-16.6856 L -0.613037,-16.6892
 L -0.664017,-16.6932 L -0.714966,-16.6974 L -0.7659,-16.7019 L -0.816803,-16.7068 L -0.867676,-16.712 L -0.918518,-16.7174
 L -0.969315,-16.7232 L -1.02008,-16.7293 L -1.07082,-16.7357 L -1.12151,-16.7425 L -1.17215,-16.7495 L -1.22275,-16.7569
 L -1.2733,-16.7645 L -1.32381,-16.7725 L -1.37427,-16.7808 L -1.42467,-16.7894 L -1.47502,-16.7982 L -1.52533,-16.8074
 L -1.57556,-16.817 L -1.62575,-16.8268 L -1.67586,-16.8369 L -1.72592,-16.8474 L -1.77591,-16.8581 L -1.82584,-16.8691
 L -1.87569,-16.8805 L -1.92548,-16.8922 L -1.97519,-16.9041 L -2.02483,-16.9164 L -2.07439,-16.929 L -2.12387,-16.9418
 L -2.17328,-16.955 L -2.2226,-16.9685 L -2.27184,-16.9823 L -2.32098,-16.9964 L -2.37006,-17.0108 L -2.41904,-17.0255
 L -2.46791,-17.0405 L -2.51671,-17.0558 L -2.5654,-17.0714 L -2.61401,-17.0873 L -2.66251,-17.1034 L -2.71091,-17.1199
 L -2.75922,-17.1367 L -2.8074,-17.1538 L -2.8555,-17.1712 L -2.90349,-17.1888 L -2.95135,-17.2068 L -2.99911,-17.2251
 L -3.04677,-17.2436 L -3.0943,-17.2624 L -3.14172,-17.2816 L -3.18903,-17.301 L -3.23621,-17.3207 L -3.28326,-17.3407
 L -3.3302,-17.361 L -3.377,-17.3816 L -3.42369,-17.4024 L -3.47025,-17.4236 L -3.51666,-17.445 L -3.56296,-17.4668
 L -3.6091,-17.4888 L -3.65512,-17.511 L -3.701,-17.5336 L -3.74675,-17.5565 L -3.79236,-17.5796 L -3.83781,-17.603
 L -3.88313,-17.6267 L -3.9283,-17.6507 L -3.97331,-17.6749 L -4.01819,-17.6994 L -4.06291,-17.7242 L -4.10748,-17.7493
 L -4.15189,-17.7746 L -4.19615,-17.8002 L -4.24025,-17.8261 L -4.28418,-17.8522 L -4.32796,-17.8787 L -4.37157,-17.9054
 L -4.41502,-17.9323 L -4.45831,-17.9595 L -4.50142,-17.987 L -4.54437,-18.0148 L -4.58714,-18.0428 L -4.62975,-18.0711
 L -4.67216,-18.0996 L -4.71442,-18.1284 L -4.7565,-18.1575 L -4.7984,-18.1868 L -4.8401,-18.2164 L -4.88164,-18.2462
 L -4.92299,-18.2763 L -4.96416,-18.3066 L -5.00513,-18.3372 L -5.04591,-18.368 L -5.08652,-18.3991 L -5.12692,-18.4304
 L -5.16713,-18.462 L -5.20715,-18.4939 L -5.24698,-18.5259 L -5.28661,-18.5582 L -5.32603,-18.5908 L -5.36525,-18.6236
 L -5.40428,-18.6566 L -5.4431,-18.6899 L -5.48172,-18.7234 L -5.52013,-18.7572 L -5.55832,-18.7912 L -5.59631,-18.8254
 L -5.63409,-18.8598 L -5.67166,-18.8945 L -5.70903,-18.9295 L -5.74617,-18.9646 L -5.78308,-19 L -5.81979,-19.0356
 L -5.85628,-19.0714 L -5.89255,-19.1074 L -5.92859,-19.1437 L -5.96442,-19.1802 L -6.00002,-19.2169 L -6.03539,-19.2538
 L -6.07053,-19.291 L -6.10544,-19.3283 L -6.14014,-19.3659 L -6.17459,-19.4037 L -6.2088,-19.4417 L -6.2428,-19.4799
 L -6.27655,-19.5183 L -6.31006,-19.5569 L -6.34334,-19.5957 L -6.37639,-19.6347 L -6.40918,-19.674 L -6.44174,-19.7134
 L -6.47406,-19.753 L -6.50613,-19.7928 L -6.53796,-19.8329 L -6.56955,-19.8731 L -6.60088,-19.9135 L -6.63197,-19.9541
 L -6.6628,-19.9949 L -6.69339,-20.0358 L -6.72372,-20.077 L -6.7538,-20.1183 L -6.78363,-20.1599 L -6.8132,-20.2016
 L -6.84251,-20.2435 L -6.87157,-20.2856 L -6.90038,-20.3278 L -6.92891,-20.3702 L -6.95718,-20.4128 L -6.9852,-20.4556
 L -7.01295,-20.4986 L -7.04044,-20.5417 L -7.06766,-20.585 L -7.09462,-20.6284 L -7.12131,-20.672 L -7.14774,-20.7158
 L -7.17389,-20.7597 L -7.19977,-20.8038 L -7.22537,-20.8481 L -7.25072,-20.8925 L -7.27579,-20.9371 L -7.30058,-20.9818
 L -7.32509,-21.0267 L -7.34933,-21.0717 L -7.37331,-21.1169 L -7.39699,-21.1622 L -7.42039,-21.2076 L -7.44353,-21.2532
 L -7.46638,-21.299 L -7.48895,-21.3449 L -7.51123,-21.3909 L -7.53323,-21.437 L -7.55496,-21.4833 L -7.57639,-21.5297
 L -7.59755,-21.5763 L -7.61841,-21.623 L -7.63898,-21.6698 L -7.65927,-21.7167 L -7.67928,-21.7638 L -7.69899,-21.811
 L -7.71841,-21.8583 L -7.73755,-21.9057 L -7.75638,-21.9532 L -7.77493,-22.0009 L -7.79318,-22.0486 L -7.81116,-22.0965
 L -7.82881,-22.1445 L -7.84619,-22.1926 L -7.86327,-22.2408 L -7.88005,-22.2891 L -7.89655,-22.3375 L -7.91272,-22.386
 L -7.92862,-22.4346 L -7.94421,-22.4833 L -7.9595,-22.5321 L -7.9745,-22.5809 L -7.98918,-22.6299 L -8.00359,-22.679
 L -8.01767,-22.7281 L -8.03146,-22.7774 L -8.04495,-22.8267 L -8.05814,-22.8761 L -8.07101,-22.9256 L -8.08359,-22.9752
 L -8.09586,-23.0248 L -8.10782,-23.0745 L -8.11949,-23.1243 L -8.13084,-23.1741 L -8.14189,-23.2241 L -8.15263,-23.2741
 L -8.16307,-23.3241 L -8.1732,-23.3742 L -8.18303,-23.4244 L -8.19254,-23.4747 L -8.20174,-23.525 L -8.21063,-23.5753
 L -8.21922,-23.6257 L -8.22751,-23.6762 L -8.23547,-23.7267 L -8.24313,-23.7772 L -8.25047,-23.8278 L -8.25751,-23.8785
 L -8.26424,-23.9292 L -8.27066,-23.9799 L -8.27676,-24.0307 L -8.28255,-24.0815 L -8.28802,-24.1323 L -8.2932,-24.1832
 L -8.29805,-24.2341 L -8.3026,-24.285 L -8.30682,-24.336 L -8.31075,-24.3869 L -8.31435,-24.438 L -8.31764,-24.489
 L -8.32062,-24.54 L -8.32329,-24.5911 L -8.32564,-24.6422 L -8.32768,-24.6933 L -8.32941,-24.7444 L -8.33081,-24.7955
 L -8.33191,-24.8466 L -8.3327,-24.8977 L -8.33318,-24.9489 L -8.33333,-25 L -8.33318,-25.0511 L -8.3327,-25.1022
 L -8.33191,-25.1534 L -8.33081,-25.2045 L -8.32941,-25.2556 L -8.32768,-25.3067 L -8.32564,-25.3578 L -8.32329,-25.4089
 L -8.32062,-25.4599 L -8.31764,-25.511 L -8.31435,-25.562 L -8.31075,-25.613 L -8.30682,-25.664 L -8.3026,-25.715
 L -8.29805,-25.7659 L -8.2932,-25.8168 L -8.28802,-25.8677 L -8.28255,-25.9185 L -8.27676,-25.9693 L -8.27066,-26.0201
 L -8.26424,-26.0708 L -8.25751,-26.1215 L -8.25047,-26.1721 L -8.24313,-26.2227 L -8.23547,-26.2733 L -8.22751,-26.3238
 L -8.21922,-26.3743 L -8.21063,-26.4247 L -8.20174,-26.475 L -8.19254,-26.5253 L -8.18303,-26.5756 L -8.1732,-26.6257
 L -8.16307,-26.6759 L -8.15263,-26.7259 L -8.14189,-26.7759 L -8.13084,-26.8258 L -8.11949,-26.8757 L -8.10782,-26.9255
 L -8.09586,-26.9752 L -8.08359,-27.0248 L -8.07101,-27.0744 L -8.05814,-27.1239 L -8.04495,-27.1733 L -8.03146,-27.2226
 L -8.01767,-27.2718 L -8.00359,-27.321 L -7.98918,-27.3701 L -7.9745,-27.419 L -7.9595,-27.4679 L -7.94421,-27.5167
 L -7.92862,-27.5654 L -7.91272,-27.614 L -7.89655,-27.6625 L -7.88005,-27.7109 L -7.86327,-27.7592 L -7.84619,-27.8074
 L -7.82881,-27.8555 L -7.81116,-27.9035 L -7.79318,-27.9514 L -7.77493,-27.9991 L -7.75638,-28.0468 L -7.73755,-28.0943
 L -7.71841,-28.1417 L -7.69899,-28.189 L -7.67928,-28.2362 L -7.65927,-28.2833 L -7.63898,-28.3302 L -7.61841,-28.377
 L -7.59755,-28.4237 L -7.57639,-28.4702 L -7.55496,-28.5167 L -7.53323,-28.563 L -7.51123,-28.6091 L -7.48895,-28.6551
 L -7.46638,-28.701 L -7.44353,-28.7467 L -7.42039,-28.7924 L -7.39699,-28.8378 L -7.37331,-28.8831 L -7.34933,-28.9283
 L -7.32509,-28.9733 L -7.30058,-29.0182 L -7.27579,-29.0629 L -7.25072,-29.1075 L -7.22537,-29.1519 L -7.19977,-29.1962
 L -7.17389,-29.2402 L -7.14774,-29.2842 L -7.12131,-29.328 L -7.09462,-29.3716 L -7.06766,-29.415 L -7.04044,-29.4583
 L -7.01295,-29.5014 L -6.9852,-29.5444 L -6.95718,-29.5871 L -6.92891,-29.6297 L -6.90038,-29.6722 L -6.87157,-29.7144
 L -6.84251,-29.7565 L -6.8132,-29.7984 L -6.78363,-29.8401 L -6.7538,-29.8816 L -6.72372,-29.923 L -6.69339,-29.9642
 L -6.6628,-30.0051 L -6.63197,-30.0459 L -6.60088,-30.0865 L -6.56955,-30.1269 L -6.53796,-30.1671 L -6.50613,-30.2072
 L -6.47406,-30.247 L -6.44174,-30.2866 L -6.40918,-30.326 L -6.37639,-30.3652 L -6.34334,-30.4043 L -6.31006,-30.4431
 L -6.27655,-30.4817 L -6.2428,-30.5201 L -6.2088,-30.5583 L -6.17459,-30.5963 L -6.14014,-30.6341 L -6.10544,-30.6717
 L -6.07053,-30.709 L -6.03539,-30.7462 L -6.00002,-30.7831 L -5.96442,-30.8198 L -5.92859,-30.8563 L -5.89255,-30.8925
 L -5.85628,-30.9286 L -5.81979,-30.9644 L -5.78308,-31 L -5.74617,-31.0354 L -5.70903,-31.0705 L -5.67166,-31.1054
 L -5.63409,-31.1401 L -5.59631,-31.1746 L -5.55832,-31.2088 L -5.52013,-31.2428 L -5.48172,-31.2766 L -5.4431,-31.3101
 L -5.40428,-31.3433 L -5.36525,-31.3764 L -5.32603,-31.4092 L -5.28661,-31.4417 L -5.24698,-31.4741 L -5.20715,-31.5061
 L -5.16713,-31.538 L -5.12692,-31.5695 L -5.08652,-31.6009 L -5.04591,-31.632 L -5.00513,-31.6628 L -4.96416,-31.6934
 L -4.92299,-31.7237 L -4.88164,-31.7538 L -4.8401,-31.7836 L -4.7984,-31.8132 L -4.7565,-31.8425 L -4.71442,-31.8716
 L -4.67216,-31.9004 L -4.62975,-31.9289 L -4.58714,-31.9572 L -4.54437,-31.9852 L -4.50142,-32.013 L -4.45831,-32.0404
 L -4.41502,-32.0677 L -4.37157,-32.0946 L -4.32796,-32.1213 L -4.28418,-32.1477 L -4.24025,-32.1739 L -4.19615,-32.1998
 L -4.15189,-32.2254 L -4.10748,-32.2507 L -4.06291,-32.2758 L -4.01819,-32.3006 L -3.97331,-32.3251 L -3.9283,-32.3493
 L -3.88313,-32.3733 L -3.83781,-32.397 L -3.79236,-32.4204 L -3.74675,-32.4435 L -3.701,-32.4664 L -3.65512,-32.489
 L -3.6091,-32.5112 L -3.56296,-32.5332 L -3.51666,-32.555 L -3.47025,-32.5764 L -3.42369,-32.5975 L -3.377,-32.6184
 L -3.3302,-32.639 L -3.28326,-32.6593 L -3.23621,-32.6793 L -3.18903,-32.699 L -3.14172,-32.7184 L -3.0943,-32.7375
 L -3.04677,-32.7564 L -2.99911,-32.7749 L -2.95135,-32.7932 L -2.90349,-32.8112 L -2.8555,-32.8288 L -2.8074,-32.8462
 L -2.75922,-32.8633 L -2.71091,-32.8801 L -2.66251,-32.8965 L -2.61401,-32.9127 L -2.5654,-32.9286 L -2.51671,-32.9442
 L -2.46791,-32.9595 L -2.41904,-32.9745 L -2.37006,-32.9892 L -2.32098,-33.0036 L -2.27184,-33.0177 L -2.2226,-33.0315
 L -2.17328,-33.045 L -2.12387,-33.0581 L -2.07439,-33.071 L -2.02483,-33.0836 L -1.97519,-33.0959 L -1.92548,-33.1078
 L -1.87569,-33.1195 L -1.82584,-33.1308 L -1.77591,-33.1419 L -1.72592,-33.1526 L -1.67586,-33.1631 L -1.62575,-33.1732
 L -1.57556,-33.183 L -1.52533,-33.1925 L -1.47502,-33.2017 L -1.42467,-33.2106 L -1.37427,-33.2192 L -1.32381,-33.2275
 L -1.2733,-33.2355 L -1.22275,-33.2431 L -1.17215,-33.2505 L -1.12151,-33.2575 L -1.07082,-33.2642 L -1.02008,-33.2707
 L -0.969315,-33.2768 L -0.918518,-33.2825 L -0.867676,-33.288 L -0.816803,-33.2932 L -0.7659,-33.298 L -0.714966,-33.3026
 L -0.664017,-33.3068 L -0.613037,-33.3107 L -0.562027,-33.3143 L -0.511002,-33.3176 L -0.459946,-33.3206 L -0.40889,-33.3233
 L -0.357819,-33.3256 L -0.306717,-33.3277 L -0.255615,-33.3294 L -0.204498,-33.3308 L -0.153381,-33.3319 L -0.102249,-33.3327
 L -0.0511322,-33.3332 L 0,-33.3333 L 0.0511322,-33.3332 L 0.102249,-33.3327 L 0.153381,-33.3319 L 0.204498,-33.3308
 L 0.255615,-33.3294 L 0.306717,-33.3277 L 0.357819,-33.3256 L 0.40889,-33.3233 L 0.459946,-33.3206 L 0.511002,-33.3176
 L 0.562027,-33.3143 L 0.613037,-33.3107 L 0.664017,-33.3068 L 0.714966,-33.3026 L 0.7659,-33.298 L 0.816803,-33.2932
 L 0.867676,-33.288 L 0.918518,-33.2825 L 0.969315,-33.2768 L 1.02008,-33.2707 L 1.07082,-33.2642 L 1.12151,-33.2575
 L 1.17215,-33.2505 L 1.22275,-33.2431 L 1.2733,-33.2355 L 1.32381,-33.2275 L 1.37427,-33.2192 L 1.42467,-33.2106
 L 1.47502,-33.2017 L 1.52533,-33.1925 L 1.57556,-33.183 L 1.62575,-33.1732 L 1.67586,-33.1631 L 1.72592,-33.1526
 L 1.77591,-33.1419 L 1.82584,-33.1308 L 1.87569,-33.1195 L 1.92548,-33.1078 L 1.97519,-33.0959 L 2.02483,-33.0836
 L 2.07439,-33.071 L 2.12387,-33.0581 L 2.17328,-33.045 L 2.2226,-33.0315 L 2.27184,-33.0177 L 2.32098,-33.0036
 L 2.37006,-32.9892 L 2.41904,-32.9745 L 2.46791,-32.9595 L 2.51671,-32.9442 L 2.5654,-32.9286 L 2.61401,-32.9127
 L 2.66251,-32.8965 L 2.71091,-32.8801 L 2.75922,-32.8633 L 2.8074,-32.8462 L 2.8555,-32.8288 L 2.90349,-32.8112
 L 2.95135,-32.7932 L 2.99911,-32.7749 L 3.04677,-32.7564 L 3.0943,-32.7375 L 3.14172,-32.7184 L 3.18903,-32.699
 L 3.23621,-32.6793 L 3.28326,-32.6593 L 3.3302,-32.639 L 3.377,-32.6184 L 3.42369,-32.5975 L 3.47025,-32.5764
 L 3.51666,-32.555 L 3.56296,-32.5332 L 3.6091,-32.5112 L 3.65512,-32.489 L 3.701,-32.4664 L 3.74675,-32.4435
 L 3.79236,-32.4204 L 3.83781,-32.397 L 3.88313,-32.3733 L 3.9283,-32.3493 L 3.97331,-32.3251 L 4.01819,-32.3006
 L 4.06291,-32.2758 L 4.10748,-32.2507 L 4.15189,-32.2254 L 4.19615,-32.1998 L 4.24025,-32.1739 L 4.28418,-32.1477
 L 4.32796,-32.1213 L 4.37157,-32.0946 L 4.41502,-32.0677 L 4.45831,-32.0404 L 4.50142,-32.013 L 4.54437,-31.9852
 L 4.58714,-31.9572 L 4.62975,-31.9289 L 4.67216,-31.9004 L 4.71442,-31.8716 L 4.7565,-31.8425 L 4.7984,-31.8132
 L 4.8401,-31.7836 L 4.88164,-31.7538 L 4.92299,-31.7237 L 4.96416,-31.6934 L 5.00513,-31.6628 L 5.04591,-31.632
 L 5.08652,-31.6009 L 5.12692,-31.5695 L 5.16713,-31.538 L 5.20715,-31.5061 L 5.24698,-31.4741 L 5.28661,-31.4417
 L 5.32603,-31.4092 L 5.36525,-31.3764 L 5.40428,-31.3433 L 5.4431,-31.3101 L 5.48172,-31.2766 L 5.52013,-31.2428
 L 5.55832,-31.2088 L 5.59631,-31.1746 L 5.63409,-31.1401 L 5.67166,-31.1054 L 5.70903,-31.0705 L 5.74617,-31.0354
 L 5.78308,-31 L 5.81979,-30.9644 L 5.85628,-30.9286 L 5.89255,-30.8925 L 5.92859,-30.8563 L 5.96442,-30.8198
 L 6.00002,-30.7831 L 6.03539,-30.7462 L 6.07053,-30.709 L 6.10544,-30.6717 L 6.14014,-30.6341 L 6.17459,-30.5963
 L 6.2088,-30.5583 L 6.2428,-30.5201 L 6.27655,-30.4817 L 6.31006,-30.4431 L 6.34334,-30.4043 L 6.37639,-30.3652
 L 6.40918,-30.326 L 6.44174,-30.2866 L 6.47406,-30.247 L 6.50613,-30.2072 L 6.53796,-30.1671 L 6.56955,-30.1269
 L 6.60088,-30.0865 L 6.63197,-30.0459 L 6.6628,-30.0051 L 6.69339,-29.9642 L 6.72372,-29.923 L 6.7538,-29.8816
 L 6.78363,-29.8401 L 6.8132,-29.7984 L 6.84251,-29.7565 L 6.87157,-29.7144 L 6.90038,-29.6722 L 6.92891,-29.6297
 L 6.95718,-29.5871 L 6.9852,-29.5444 L 7.01295,-29.5014 L 7.04044,-29.4583 L 7.06766,-29.415 L 7.09462,-29.3716
 L 7.12131,-29.328 L 7.14774,-29.2842 L 7.17389,-29.2402 L 7.19977,-29.1962 L 7.22537,-29.1519 L 7.25072,-29.1075
 L 7.27579,-29.0629 L 7.30058,-29.0182 L 7.32509,-28.9733 L 7.34933,-28.9283 L 7.37331,-28.8831 L 7.39699,-28.8378
 L 7.42039,-28.7924 L 7.44353,-28.7467 L 7.46638,-28.701 L 7.48895,-28.6551 L 7.51123,-28.6091 L 7.53323,-28.563
 L 7.55496,-28.5167 L 7.57639,-28.4702 L 7.59755,-28.4237 L 7.61841,-28.377 L 7.63898,-28.3302 L 7.65927,-28.2833
 L 7.67928,-28.2362 L 7.69899,-28.189 L 7.71841,-28.1417 L 7.73755,-28.0943 L 7.75638,-28.0468 L 7.77493,-27.9991
 L 7.79318,-27.9514 L 7.81116,-27.9035 L 7.82881,-27.8555 L 7.84619,-27.8074 L 7.86327,-27.7592 L 7.88005,-27.7109
 L 7.89655,-27.6625 L 7.91272,-27.614 L 7.92862,-27.5654 L 7.94421,-27.5167 L 7.9595,-27.4679 L 7.9745,-27.419
 L 7.98918,-27.3701 L 8.00359,-27.321 L 8.01767,-27.2718 L 8.03146,-27.2226 L 8.04495,-27.1733 L 8.05814,-27.1239
 L 8.07101,-27.0744 L 8.08359,-27.0248 L 8.09586,-26.9752 L 8.10782,-26.9255 L 8.11949,-26.8757 L 8.13084,-26.8258
 L 8.14189,-26.7759 L 8.15263,-26.7259 L 8.16307,-26.6759 L 8.1732,-26.6257 L 8.18303,-26.5756 L 8.19254,-26.5253
 L 8.20174,-26.475 L 8.21063,-26.4247 L 8.21922,-26.3743 L 8.22751,-26.3238 L 8.23547,-26.2733 L 8.24313,-26.2227
 L 8.25047,-26.1721 L 8.25751,-26.1215 L 8.26424,-26.0708 L 8.27066,-26.0201 L 8.27676,-25.9693 L 8.28255,-25.9185
 L 8.28802,-25.8677 L 8.2932,-25.8168 L 8.29805,-25.7659 L 8.3026,-25.715 L 8.30682,-25.664 L 8.31075,-25.613
 L 8.31435,-25.562 L 8.31764,-25.511 L 8.32062,-25.4599 L 8.32329,-25.4089 L 8.32564,-25.3578 L 8.32768,-25.3067
 L 8.32941,-25.2556 L 8.33081,-25.2045 L 8.33191,-25.1534 L 8.3327,-25.1022 L 8.33318,-25.0511 L 8.33333,-25
 L 8.33318,-24.9489 L 8.3327,-24.8977 L 8.33191,-24.8466 L 8.33081,-24.7955 L 8.32941,-24.7444 L 8.32768,-24.6933
 L 8.32564,-24.6422 L 8.32329,-24.5911 L 8.32062,-24.54 L 8.31764,-24.489 L 8.31435,-24.438 L 8.31075,-24.3869
 L 8.30682,-24.336 L 8.3026,-24.285 L 8.29805,-24.2341 L 8.2932,-24.1832 L 8.28802,-24.1323 L 8.28255,-24.0815
 L 8.27676,-24.0307 L 8.27066,-23.9799 L 8.26424,-23.9292 L 8.25751,-23.8785 L 8.25047,-23.8278 L 8.24313,-23.7772
 L 8.23547,-23.7267 L 8.22751,-23.6762 L 8.21922,-23.6257 L 8.21063,-23.5753 L 8.20174,-23.525 L 8.19254,-23.4747
 L 8.18303,-23.4244 L 8.1732,-23.3742 L 8.16307,-23.3241 L 8.15263,-23.2741 L 8.14189,-23.2241 L 8.13084,-23.1741
 L 8.11949,-23.1243 L 8.10782,-23.0745 L 8.09586,-23.0248 L 8.08359,-22.9752 L 8.07101,-22.9256 L 8.05814,-22.8761
 L 8.04495,-22.8267 L 8.03146,-22.7774 L 8.01767,-22.7281 L 8.00359,-22.679 L 7.98918,-22.6299 L 7.9745,-22.5809
 L 7.9595,-22.5321 L 7.94421,-22.4833 L 7.92862,-22.4346 L 7.91272,-22.386 L 7.89655,-22.3375 L 7.88005,-22.2891
 L 7.86327,-22.2408 L 7.84619,-22.1926 L 7.82881,-22.1445 L 7.81116,-22.0965 L 7.79318,-22.0486 L 7.77493,-22.0009
 L 7.75638,-21.9532 L 7.73755,-21.9057 L 7.71841,-21.8583 L 7.69899,-21.811 L 7.67928,-21.7638 L 7.65927,-21.7167
 L 7.63898,-21.6698 L 7.61841,-21.623 L 7.59755,-21.5763 L 7.57639,-21.5297 L 7.55496,-21.4833 L 7.53323,-21.437
 L 7.51123,-21.3909 L 7.48895,-21.3449 L 7.46638,-21.299 L 7.44353,-21.2532 L 7.42039,-21.2076 L 7.39699,-21.1622
 L 7.37331,-21.1169 L 7.34933,-21.0717 L 7.32509,-21.0267 L 7.30058,-20.9818 L 7.27579,-20.9371 L 7.25072,-20.8925
 L 7.22537,-20.8481 L 7.19977,-20.8038 L 7.17389,-20.7597 L 7.14774,-20.7158 L 7.12131,-20.672 L 7.09462,-20.6284
 L 7.06766,-20.585 L 7.04044,-20.5417 L 7.01295,-20.4986 L 6.9852,-20.4556 L 6.95718,-20.4128 L 6.92891,-20.3702
 L 6.90038,-20.3278 L 6.87157,-20.2856 L 6.84251,-20.2435 L 6.8132,-20.2016 L 6.78363,-20.1599 L 6.7538,-20.1183
 L 6.72372,-20.077 L 6.69339,-20.0358 L 6.6628,-19.9949 L 6.63197,-19.9541 L 6.60088,-19.9135 L 6.56955,-19.8731
 L 6.53796,-19.8329 L 6.50613,-19.7928 L 6.47406,-19.753 L 6.44174,-19.7134 L 6.40918,-19.674 L 6.37639,-19.6347
 L 6.34334,-19.5957 L 6.31006,-19.5569 L 6.27655,-19.5183 L 6.2428,-19.4799 L 6.2088,-19.4417 L 6.17459,-19.4037
 L 6.14014,-19.3659 L 6.10544,-19.3283 L 6.07053,-19.291 L 6.03539,-19.2538 L 6.00002,-19.2169 L 5.96442,-19.1802
 L 5.92859,-19.1437 L 5.89255,-19.1074 L 5.85628,-19.0714 L 5.81979,-19.0356 L 5.78308,-19 L 5.74617,-18.9646
 L 5.70903,-18.9295 L 5.67166,-18.8945 L 5.63409,-18.8598 L 5.59631,-18.8254 L 5.55832,-18.7912 L 5.52013,-18.7572
 L 5.48172,-18.7234 L 5.4431,-18.6899 L 5.40428,-18.6566 L 5.36525,-18.6236 L 5.32603,-18.5908 L 5.28661,-18.5582
 L 5.24698,-18.5259 L 5.20715,-18.4939 L 5.16713,-18.462 L 5.12692,-18.4304 L 5.08652,-18.3991 L 5.04591,-18.368
 L 5.00513,-18.3372 L 4.96416,-18.3066 L 4.92299,-18.2763 L 4.88164,-18.2462 L 4.8401,-18.2164 L 4.7984,-18.1868
 L 4.7565,-18.1575 L 4.71442,-18.1284 L 4.67216,-18.0996 L 4.62975,-18.0711 L 4.58714,-18.0428 L 4.54437,-18.0148
 L 4.50142,-17.987 L 4.45831,-17.9595 L 4.41502,-17.9323 L 4.37157,-17.9054 L 4.32796,-17.8787 L 4.28418,-17.8522
 L 4.24025,-17.8261 L 4.19615,-17.8002 L 4.15189,-17.7746 L 4.10748,-17.7493 L 4.06291,-17.7242 L 4.01819,-17.6994
 L 3.97331,-17.6749 L 3.9283,-17.6507 L 3.88313,-17.6267 L 3.83781,-17.603 L 3.79236,-17.5796 L 3.74675,-17.5565
 L 3.701,-17.5336 L 3.65512,-17.511 L 3.6091,-17.4888 L 3.56296,-17.4668 L 3.51666,-17.445 L 3.47025,-17.4236
 L 3.42369,-17.4024 L 3.377,-17.3816 L 3.3302,-17.361 L 3.28326,-17.3407 L 3.23621,-17.3207 L 3.18903,-17.301
 L 3.14172,-17.2816 L 3.0943,-17.2624 L 3.04677,-17.2436 L 2.99911,-17.2251 L 2.95135,-17.2068 L 2.90349,-17.1888
 L 2.8555,-17.1712 L 2.8074,-17.1538 L 2.75922,-17.1367 L 2.71091,-17.1199 L 2.66251,-17.1034 L 2.61401,-17.0873
 L 2.5654,-17.0714 L 2.51671,-17.0558 L 2.46791,-17.0405 L 2.41904,-17.0255 L 2.37006,-17.0108 L 2.32098,-16.9964
 L 2.27184,-16.9823 L 2.2226,-16.9685 L 2.17328,-16.955 L 2.12387,-16.9418 L 2.07439,-16.929 L 2.02483,-16.9164
 L 1.97519,-16.9041 L 1.92548,-16.8922 L 1.87569,-16.8805 L 1.82584,-16.8691 L 1.77591,-16.8581 L 1.72592,-16.8474
 L 1.67586,-16.8369 L 1.62575,-16.8268 L 1.57556,-16.817 L 1.52533,-16.8074 L 1.47502,-16.7982 L 1.42467,-16.7894
 L 1.37427,-16.7808 L 1.32381,-16.7725 L 1.2733,-16.7645 L 1.22275,-16.7569 L 1.17215,-16.7495 L 1.12151,-16.7425
 L 1.07082,-16.7357 L 1.02008,-16.7293 L 0.969315,-16.7232 L 0.918518,-16.7174 L 0.867676,-16.712 L 0.816803,-16.7068
 L 0.7659,-16.7019 L 0.714966,-16.6974 L 0.664017,-16.6932 L 0.613037,-16.6892 L 0.562027,-16.6856 L 0.511002,-16.6823
 L 0.459946,-16.6794 L 0.40889,-16.6767 L 0.357819,-16.6743 L 0.306717,-16.6723 L 0.255615,-16.6706 L 0.204498,-16.6692
 L 0.153381,-16.6681 L 0.102249,-16.6673 L 0.0511322,-16.6668 L 0,-16.6667 z
M -0.306793,49.9991 L -0.613571,49.9962 L -0.920334,49.9915 L -1.22705,49.9849 L -1.53374,49.9765 L -1.84035,49.9661
 L -2.14691,49.9539 L -2.45337,49.9398 L -2.75975,49.9238 L -3.06602,49.9059 L -3.37219,49.8861 L -3.67822,49.8645
 L -3.98412,49.841 L -4.28986,49.8156 L -4.59544,49.7884 L -4.90085,49.7592 L -5.20607,49.7282 L -5.51111,49.6953
 L -5.81592,49.6606 L -6.12053,49.624 L -6.4249,49.5855 L -6.72903,49.5451 L -7.0329,49.5029 L -7.33652,49.4588
 L -7.63985,49.4129 L -7.9429,49.3651 L -8.24565,49.3154 L -8.54808,49.2639 L -8.8502,49.2105 L -9.15199,49.1553
 L -9.45343,49.0982 L -9.7545,49.0393 L -10.0552,48.9785 L -10.3556,48.9159 L -10.6555,48.8514 L -10.955,48.7851
 L -11.2542,48.717 L -11.5529,48.647 L -11.8512,48.5752 L -12.149,48.5016 L -12.4464,48.4261 L -12.7433,48.3488
 L -13.0397,48.2697 L -13.3356,48.1888 L -13.6311,48.1061 L -13.926,48.0215 L -14.2204,47.9352 L -14.5142,47.847
 L -14.8075,47.757 L -15.1003,47.6653 L -15.3925,47.5717 L -15.6841,47.4764 L -15.9751,47.3793 L -16.2655,47.2804
 L -16.5553,47.1797 L -16.8445,47.0772 L -17.133,46.9729 L -17.4209,46.8669 L -17.7082,46.7592 L -17.9948,46.6496
 L -18.2806,46.5383 L -18.5659,46.4253 L -18.8504,46.3105 L -19.1342,46.194 L -19.4173,46.0757 L -19.6996,45.9557
 L -19.9812,45.8339 L -20.2621,45.7105 L -20.5421,45.5853 L -20.8215,45.4584 L -21.1,45.3298 L -21.3777,45.1995
 L -21.6547,45.0674 L -21.9308,44.9337 L -22.2061,44.7983 L -22.4806,44.6612 L -22.7542,44.5224 L -23.0269,44.382
 L -23.2988,44.2399 L -23.5698,44.0961 L -23.84,43.9506 L -24.1092,43.8035 L -24.3775,43.6547 L -24.6449,43.5043
 L -24.9114,43.3523 L -25.1769,43.1986 L -25.4415,43.0433 L -25.7051,42.8864 L -25.9678,42.7279 L -26.2295,42.5677
 L -26.4902,42.406 L -26.7499,42.2427 L -27.0086,42.0777 L -27.2662,41.9112 L -27.5229,41.7431 L -27.7785,41.5735
 L -28.0331,41.4023 L -28.2866,41.2295 L -28.539,41.0551 L -28.7904,40.8792 L -29.0407,40.7018 L -29.2899,40.5229
 L -29.538,40.3424 L -29.785,40.1604 L -30.0308,39.9769 L -30.2755,39.7918 L -30.5191,39.6053 L -30.7616,39.4173
 L -31.0029,39.2278 L -31.243,39.0368 L -31.4819,38.8444 L -31.7197,38.6505 L -31.9562,38.4552 L -32.1916,38.2584
 L -32.4257,38.0601 L -32.6586,37.8604 L -32.8903,37.6593 L -33.1208,37.4568 L -33.35,37.2529 L -33.5779,37.0475
 L -33.8046,36.8408 L -34.03,36.6327 L -34.2542,36.4232 L -34.477,36.2123 L -34.6986,36.0001 L -34.9188,35.7865
 L -35.1377,35.5716 L -35.3553,35.3553 L -35.5716,35.1377 L -35.7865,34.9188 L -36.0001,34.6986 L -36.2123,34.477
 L -36.4232,34.2542 L -36.6327,34.03 L -36.8408,33.8046 L -37.0475,33.5779 L -37.2529,33.35 L -37.4568,33.1208
 L -37.6593,32.8903 L -37.8604,32.6586 L -38.0601,32.4257 L -38.2584,32.1916 L -38.4552,31.9562 L -38.6505,31.7197
 L -38.8444,31.4819 L -39.0368,31.243 L -39.2278,31.0029 L -39.4173,30.7616 L -39.6053,30.5191 L -39.7918,30.2755
 L -39.9769,30.0308 L -40.1604,29.785 L -40.3424,29.538 L -40.5229,29.2899 L -40.7018,29.0407 L -40.8792,28.7904
 L -41.0551,28.539 L -41.2295,28.2866 L -41.4023,28.0331 L -41.5735,27.7785 L -41.7431,27.5229 L -41.9112,27.2662
 L -42.0777,27.0086 L -42.2427,26.7499 L -42.406,26.4902 L -42.5677,26.2295 L -42.7279,25.9678 L -42.8864,25.7051
 L -43.0433,25.4415 L -43.1986,25.1769 L -43.3523,24.9114 L -43.5043,24.6449 L -43.6547,24.3775 L -43.8035,24.1092
 L -43.9506,23.84 L -44.0961,23.5698 L -44.2399,23.2988 L -44.382,23.0269 L -44.5224,22.7542 L -44.6612,22.4806
 L -44.7983,22.2061 L -44.9337,21.9308 L -45.0674,21.6547 L -45.1995,21.3777 L -45.3298,21.1 L -45.4584,20.8215
 L -45.5853,20.5421 L -45.7105,20.2621 L -45.8339,19.9812 L -45.9557,19.6996 L -46.0757,19.4173 L -46.194,19.1342
 L -46.3105,18.8504 L -46.4253,18.5659 L -46.5383,18.2806 L -46.6496,17.9948 L -46.7592,17.7082 L -46.8669,17.4209
 L -46.9729,17.133 L -47.0772,16.8445 L -47.1797,16.5553 L -47.2804,16.2655 L -47.3793,15.9751 L -47.4764,15.6841
 L -47.5717,15.3925 L -47.6653,15.1003 L -47.757,14.8075 L -47.847,14.5142 L -47.9352,14.2204 L -48.0215,13.926
 L -48.1061,13.6311 L -48.1888,13.3356 L -48.2697,13.0397 L -48.3488,12.7433 L -48.4261,12.4464 L -48.5016,12.149
 L -48.5752,11.8512 L -48.647,11.5529 L -48.717,11.2542 L -48.7851,10.955 L -48.8514,10.6555 L -48.9159,10.3556
 L -48.9785,10.0552 L -49.0393,9.7545 L -49.0982,9.45343 L -49.1553,9.15199 L -49.2105,8.8502 L -49.2639,8.54808
 L -49.3154,8.24565 L -49.3651,7.9429 L -49.4129,7.63985 L -49.4588,7.33652 L -49.5029,7.0329 L -49.5451,6.72903
 L -49.5855,6.4249 L -49.624,6.12053 L -49.6606,5.81592 L -49.6953,5.51111 L -49.7282,5.20607 L -49.7592,4.90085
 L -49.7884,4.59544 L -49.8156,4.28986 L -49.841,3.98412 L -49.8645,3.67822 L -49.8861,3.37219 L -49.9059,3.06602
 L -49.9238,2.75975 L -49.9398,2.45337 L -49.9539,2.14691 L -49.9661,1.84035 L -49.9765,1.53374 L -49.9849,1.22705
 L -49.9915,0.920334 L -49.9962,0.613571 L -49.9991,0.306793 L -50,-0 L -49.9991,-0.306793 L -49.9962,-0.613571
 L -49.9915,-0.920334 L -49.9849,-1.22705 L -49.9765,-1.53374 L -49.9661,-1.84035 L -49.9539,-2.14691 L -49.9398,-2.45337
 L -49.9238,-2.75975 L -49.9059,-3.06602 L -49.8861,-3.37219 L -49.8645,-3.67822 L -49.841,-3.98412 L -49.8156,-4.28986
 L -49.7884,-4.59544 L -49.7592,-4.90085 L -49.7282,-5.20607 L -49.6953,-5.51111 L -49.6606,-5.81592 L -49.624,-6.12053
 L -49.5855,-6.4249 L -49.5451,-6.72903 L -49.5029,-7.0329 L -49.4588,-7.33652 L -49.4129,-7.63985 L -49.3651,-7.9429
 L -49.3154,-8.24565 L -49.2639,-8.54808 L -49.2105,-8.8502 L -49.1553,-9.15199 L -49.0982,-9.45343 L -49.0393,-9.7545
 L -48.9785,-10.0552 L -48.9159,-10.3556 L -48.8514,-10.6555 L -48.7851,-10.955 L -48.717,-11.2542 L -48.647,-11.5529
 L -48.5752,-11.8512 L -48.5016,-12.149 L -48.4261,-12.4464 L -48.3488,-12.7433 L -48.2697,-13.0397 L -48.1888,-13.3356
 L -48.1061,-13.6311 L -48.0215,-13.926 L -47.9352,-14.2204 L -47.847,-14.5142 L -47.757,-14.8075 L -47.6653,-15.1003
 L -47.5717,-15.3925 L -47.4764,-15.6841 L -47.3793,-15.9751 L -47.2804,-16.2655 L -47.1797,-16.5553 L -47.0772,-16.8445
 L -46.9729,-17.133 L -46.8669,-17.4209 L -46.7592,-17.7082 L -46.6496,-17.9948 L -46.5383,-18.2806 L -46.4253,-18.5659
 L -46.3105,-18.8504 L -46.194,-19.1342 L -46.0757,-19.4173 L -45.9557,-19.6996 L -45.8339,-19.9812 L -45.7105,-20.2621
 L -45.5853,-20.5421 L -45.4584,-20.8215 L -45.3298,-21.1 L -45.1995,-21.3777 L -45.0674,-21.6547 L -44.9337,-21.9308
 L -44.7983,-22.2061 L -44.6612,-22.4806 L -44.5224,-22.7542 L -44.382,-23.0269 L -44.2399,-23.2988 L -44.0961,-23.5698
 L -43.9506,-23.84 L -43.8035,-24.1092 L -43.6547,-24.3775 L -43.5043,-24.6449 L -43.3523,-24.9114 L -43.1986,-25.1769
 L -43.0433,-25.4415 L -42.8864,-25.7051 L -42.7279,-25.9678 L -42.5677,-26.2295 L -42.406,-26.4902 L -42.2427,-26.7499
 L -42.0777,-27.0086 L -41.9112,-27.2662 L -41.7431,-27.5229 L -41.5735,-27.7785 L -41.4023,-28.0331 L -41.2295,-28.2866
 L -41.0551,-28.539 L -40.8792,-28.7904 L -40.7018,-29.0407 L -40.5229,-29.2899 L -40.3424,-29.538 L -40.1604,-29.785
 L -39.9769,-30.0308 L -39.7918,-30.2755 L -39.6053,-30.5191 L -39.4173,-30.7616 L -39.2278,-31.0029 L -39.0368,-31.243
 L -38.8444,-31.4819 L -38.6505,-31.7197 L -38.4552,-31.9562 L -38.2584,-32.1916 L -38.0601,-32.4257 L -37.8604,-32.6586
 L -37.6593,-32.8903 L -37.4568,-33.1208 L -37.2529,-33.35 L -37.0475,-33.5779 L -36.8408,-33.8046 L -36.6327,-34.03
 L -36.4232,-34.2542 L -36.2123,-34.477 L -36.0001,-34.6986 L -35.7865,-34.9188 L -35.5716,-35.1377 L -35.3553,-35.3553
 L -35.1377,-35.5716 L -34.9188,-35.7865 L -34.6986,-36.0001 L -34.477,-36.2123 L -34.2542,-36.4232 L -34.03,-36.6327
 L -33.8046,-36.8408 L -33.5779,-37.0475 L -33.35,-37.2529 L -33.1208,-37.4568 L -32.8903,-37.6593 L -32.6586,-37.8604
 L -32.4257,-38.0601 L -32.1916,-38.2584 L -31.9562,-38.4552 L -31.7197,-38.6505 L -31.4819,-38.8444 L -31.243,-39.0368
 L -31.0029,-39.2278 L -30.7616,-39.4173 L -30.5191,-39.6053 L -30.2755,-39.7918 L -30.0308,-39.9769 L -29.785,-40.1604
 L -29.538,-40.3424 L -29.2899,-40.5229 L -29.0407,-40.7018 L -28.7904,-40.8792 L -28.539,-41.0551 L -28.2866,-41.2295
 L -28.0331,-41.4023 L -27.7785,-41.5735 L -27.5229,-41.7431 L -27.2662,-41.9112 L -27.0086,-42.0777 L -26.7499,-42.2427
 L -26.4902,-42.406 L -26.2295,-42.5677 L -25.9678,-42.7279 L -25.7051,-42.8864 L -25.4415,-43.0433 L -25.1769,-43.1986
 L -24.9114,-43.3523 L -24.6449,-43.5043 L -24.3775,-43.6547 L -24.1092,-43.8035 L -23.84,-43.9506 L -23.5698,-44.0961
 L -23.2988,-44.2399 L -23.0269,-44.382 L -22.7542,-44.5224 L -22.4806,-44.6612 L -22.2061,-44.7983 L -21.9308,-44.9337
 L -21.6547,-45.0674 L -21.3777,-45.1995 L -21.1,-45.3298 L -20.8215,-45.4584 L -20.5421,-45.5853 L -20.2621,-45.7105
 L -19.9812,-45.8339 L -19.6996,-45.9557 L -19.4173,-46.0757 L -19.1342,-46.194 L -18.8504,-46.3105 L -18.5659,-46.4253
 L -18.2806,-46.5383 L -17.9948,-46.6496 L -17.7082,-46.7592 L -17.4209,-46.8669 L -17.133,-46.9729 L -16.8445,-47.0772
 L -16.5553,-47.1797 L -16.2655,-47.2804 L -15.9751,-47.3793 L -15.6841,-47.4764 L -15.3925,-47.5717 L -15.1003,-47.6653
 L -14.8075,-47.757 L -14.5142,-47.847 L -14.2204,-47.9352 L -13.926,-48.0215 L -13.6311,-48.1061 L -13.3356,-48.1888
 L -13.0397,-48.2697 L -12.7433,-48.3488 L -12.4464,-48.4261 L -12.149,-48.5016 L -11.8512,-48.5752 L -11.5529,-48.647
 L -11.2542,-48.717 L -10.955,-48.7851 L -10.6555,-48.8514 L -10.3556,-48.9159 L -10.0552,-48.9785 L -9.7545,-49.0393
 L -9.45343,-49.0982 L -9.15199,-49.1553 L -8.8502,-49.2105 L -8.54808,-49.2639 L -8.24565,-49.3154 L -7.9429,-49.3651
 L -7.63985,-49.4129 L -7.33652,-49.4588 L -7.0329,-49.5029 L -6.72903,-49.5451 L -6.4249,-49.5855 L -6.12053,-49.624
 L -5.81592,-49.6606 L -5.51111,-49.6953 L -5.20607,-49.7282 L -4.90085,-49.7592 L -4.59544,-49.7884 L -4.28986,-49.8156
 L -3.98412,-49.841 L -3.67822,-49.8645 L -3.37219,-49.8861 L -3.06602,-49.9059 L -2.75975,-49.9238 L -2.45337,-49.9398
 L -2.14691,-49.9539 L -1.84035,-49.9661 L -1.53374,-49.9765 L -1.22705,-49.9849 L -0.920334,-49.9915 L -0.613571,-49.9962
 L -0.306793,-49.9991 L -0.153397,-49.9995 L -0.306778,-49.9981 L -0.460159,-49.9958 L -0.613525,-49.9925 L -0.766861,-49.9882
 L -0.920166,-49.983 L -1.07346,-49.9769 L -1.22668,-49.9699 L -1.37987,-49.9619 L -1.533,-49.9529 L -1.6861,-49.9431
 L -1.83911,-49.9323 L -1.99205,-49.9205 L -2.14493,-49.9078 L -2.29771,-49.8942 L -2.45042,-49.8796 L -2.60303,-49.8641
 L -2.75555,-49.8477 L -2.90796,-49.8303 L -3.06026,-49.812 L -3.21245,-49.7927 L -3.36452,-49.7726 L -3.51645,-49.7514
 L -3.66826,-49.7294 L -3.81992,-49.7064 L -3.97145,-49.6825 L -4.12282,-49.6577 L -4.27403,-49.6319 L -4.42509,-49.6052
 L -4.57599,-49.5776 L -4.72672,-49.5491 L -4.87724,-49.5196 L -5.0276,-49.4892 L -5.17778,-49.4579 L -5.32774,-49.4257
 L -5.47752,-49.3925 L -5.62709,-49.3585 L -5.77644,-49.3235 L -5.92558,-49.2876 L -6.07449,-49.2508 L -6.22318,-49.213
 L -6.37163,-49.1744 L -6.51985,-49.1349 L -6.66782,-49.0944 L -6.81552,-49.053 L -6.96298,-49.0108 L -7.11018,-48.9676
 L -7.25711,-48.9235 L -7.40376,-48.8785 L -7.55014,-48.8326 L -7.69623,-48.7859 L -7.84204,-48.7382 L -7.98755,-48.6896
 L -8.13275,-48.6402 L -8.27765,-48.5898 L -8.42224,-48.5386 L -8.56651,-48.4865 L -8.71046,-48.4335 L -8.85408,-48.3796
 L -8.99738,-48.3248 L -9.14032,-48.2692 L -9.28293,-48.2126 L -9.42517,-48.1552 L -9.56708,-48.097 L -9.70862,-48.0378
 L -9.84979,-47.9778 L -9.9906,-47.917 L -10.131,-47.8552 L -10.2711,-47.7926 L -10.4107,-47.7292 L -10.55,-47.6649
 L -10.6889,-47.5997 L -10.8273,-47.5337 L -10.9654,-47.4669 L -11.103,-47.3992 L -11.2403,-47.3306 L -11.3771,-47.2612
 L -11.5135,-47.191 L -11.6494,-47.1199 L -11.7849,-47.048 L -11.92,-46.9753 L -12.0546,-46.9017 L -12.1888,-46.8274
 L -12.3224,-46.7522 L -12.4557,-46.6761 L -12.5885,-46.5993 L -12.7207,-46.5217 L -12.8526,-46.4432 L -12.9839,-46.3639
 L -13.1147,-46.2839 L -13.2451,-46.203 L -13.3749,-46.1213 L -13.5043,-46.0389 L -13.6331,-45.9556 L -13.7614,-45.8716
 L -13.8893,-45.7867 L -14.0165,-45.7011 L -14.1433,-45.6147 L -14.2695,-45.5276 L -14.3952,-45.4396 L -14.5203,-45.3509
 L -14.6449,-45.2614 L -14.769,-45.1712 L -14.8925,-45.0802 L -15.0154,-44.9884 L -15.1378,-44.8959 L -15.2596,-44.8027
 L -15.3808,-44.7086 L -15.5014,-44.6139 L -15.6215,-44.5184 L -15.741,-44.4222 L -15.8598,-44.3253 L -15.9781,-44.2276
 L -16.0958,-44.1292 L -16.2128,-44.03 L -16.3293,-43.9302 L -16.4452,-43.8297 L -16.5604,-43.7284 L -16.675,-43.6264
 L -16.789,-43.5238 L -16.9023,-43.4204 L -17.015,-43.3163 L -17.1271,-43.2116 L -17.2385,-43.1062 L -17.3493,-43.0001
 L -17.4594,-42.8933 L -17.5689,-42.7858 L -17.6777,-42.6777 L -17.7858,-42.5689 L -17.8933,-42.4594 L -18.0001,-42.3493
 L -18.1062,-42.2385 L -18.2116,-42.1271 L -18.3163,-42.015 L -18.4204,-41.9023 L -18.5238,-41.789 L -18.6264,-41.675
 L -18.7284,-41.5604 L -18.8297,-41.4452 L -18.9302,-41.3293 L -19.03,-41.2128 L -19.1292,-41.0958 L -19.2276,-40.9781
 L -19.3253,-40.8598 L -19.4222,-40.741 L -19.5184,-40.6215 L -19.6139,-40.5014 L -19.7086,-40.3808 L -19.8027,-40.2596
 L -19.8959,-40.1378 L -19.9884,-40.0154 L -20.0802,-39.8925 L -20.1712,-39.769 L -20.2614,-39.6449 L -20.3509,-39.5203
 L -20.4396,-39.3952 L -20.5276,-39.2695 L -20.6147,-39.1433 L -20.7011,-39.0165 L -20.7867,-38.8893 L -20.8716,-38.7614
 L -20.9556,-38.6331 L -21.0389,-38.5043 L -21.1213,-38.3749 L -21.203,-38.2451 L -21.2839,-38.1147 L -21.3639,-37.9839
 L -21.4432,-37.8526 L -21.5217,-37.7207 L -21.5993,-37.5885 L -21.6761,-37.4557 L -21.7522,-37.3224 L -21.8274,-37.1888
 L -21.9017,-37.0546 L -21.9753,-36.92 L -22.048,-36.7849 L -22.1199,-36.6494 L -22.191,-36.5135 L -22.2612,-36.3771
 L -22.3306,-36.2403 L -22.3992,-36.103 L -22.4669,-35.9654 L -22.5337,-35.8273 L -22.5997,-35.6889 L -22.6649,-35.55
 L -22.7292,-35.4107 L -22.7926,-35.2711 L -22.8552,-35.131 L -22.917,-34.9906 L -22.9778,-34.8498 L -23.0378,-34.7086
 L -23.097,-34.5671 L -23.1552,-34.4252 L -23.2126,-34.2829 L -23.2692,-34.1403 L -23.3248,-33.9974 L -23.3796,-33.8541
 L -23.4335,-33.7105 L -23.4865,-33.5665 L -23.5386,-33.4222 L -23.5898,-33.2776 L -23.6402,-33.1328 L -23.6896,-32.9875
 L -23.7382,-32.842 L -23.7859,-32.6962 L -23.8326,-32.5501 L -23.8785,-32.4038 L -23.9235,-32.2571 L -23.9676,-32.1102
 L -24.0108,-31.963 L -24.053,-31.8155 L -24.0944,-31.6678 L -24.1349,-31.5199 L -24.1744,-31.3716 L -24.213,-31.2232
 L -24.2508,-31.0745 L -24.2876,-30.9256 L -24.3235,-30.7764 L -24.3585,-30.6271 L -24.3925,-30.4775 L -24.4257,-30.3277
 L -24.4579,-30.1778 L -24.4892,-30.0276 L -24.5196,-29.8772 L -24.5491,-29.7267 L -24.5776,-29.576 L -24.6052,-29.4251
 L -24.6319,-29.274 L -24.6577,-29.1228 L -24.6825,-28.9715 L -24.7064,-28.8199 L -24.7294,-28.6683 L -24.7514,-28.5164
 L -24.7726,-28.3645 L -24.7927,-28.2124 L -24.812,-28.0603 L -24.8303,-27.908 L -24.8477,-27.7556 L -24.8641,-27.603
 L -24.8796,-27.4504 L -24.8942,-27.2977 L -24.9078,-27.1449 L -24.9205,-26.9921 L -24.9323,-26.8391 L -24.9431,-26.6861
 L -24.9529,-26.533 L -24.9619,-26.3799 L -24.9699,-26.2267 L -24.9769,-26.0735 L -24.983,-25.9202 L -24.9882,-25.7669
 L -24.9925,-25.6135 L -24.9958,-25.4602 L -24.9981,-25.3068 L -24.9995,-25.1534 L -25,-25 L -24.9995,-24.8466
 L -24.9981,-24.6932 L -24.9958,-24.5398 L -24.9925,-24.3865 L -24.9882,-24.2331 L -24.983,-24.0798 L -24.9769,-23.9265
 L -24.9699,-23.7733 L -24.9619,-23.6201 L -24.9529,-23.467 L -24.9431,-23.3139 L -24.9323,-23.1609 L -24.9205,-23.0079
 L -24.9078,-22.8551 L -24.8942,-22.7023 L -24.8796,-22.5496 L -24.8641,-22.397 L -24.8477,-22.2444 L -24.8303,-22.092
 L -24.812,-21.9397 L -24.7927,-21.7875 L -24.7726,-21.6355 L -24.7514,-21.4835 L -24.7294,-21.3317 L -24.7064,-21.1801
 L -24.6825,-21.0285 L -24.6577,-20.8772 L -24.6319,-20.726 L -24.6052,-20.5749 L -24.5776,-20.424 L -24.5491,-20.2733
 L -24.5196,-20.1227 L -24.4892,-19.9724 L -24.4579,-19.8222 L -24.4257,-19.6722 L -24.3925,-19.5225 L -24.3585,-19.3729
 L -24.3235,-19.2235 L -24.2876,-19.0744 L -24.2508,-18.9255 L -24.213,-18.7768 L -24.1744,-18.6284 L -24.1349,-18.4801
 L -24.0944,-18.3322 L -24.053,-18.1845 L -24.0108,-18.037 L -23.9676,-17.8898 L -23.9235,-17.7429 L -23.8785,-17.5962
 L -23.8326,-17.4498 L -23.7859,-17.3038 L -23.7382,-17.1579 L -23.6896,-17.0124 L -23.6402,-16.8672 L -23.5898,-16.7223
 L -23.5386,-16.5777 L -23.4865,-16.4335 L -23.4335,-16.2895 L -23.3796,-16.1459 L -23.3248,-16.0026 L -23.2692,-15.8597
 L -23.2126,-15.7171 L -23.1552,-15.5748 L -23.097,-15.4329 L -23.0378,-15.2914 L -22.9778,-15.1502 L -22.917,-15.0094
 L -22.8552,-14.869 L -22.7926,-14.7289 L -22.7292,-14.5892 L -22.6649,-14.45 L -22.5997,-14.3111 L -22.5337,-14.1727
 L -22.4669,-14.0346 L -22.3992,-13.8969 L -22.3306,-13.7597 L -22.2612,-13.6229 L -22.191,-13.4865 L -22.1199,-13.3506
 L -22.048,-13.2151 L -21.9753,-13.08 L -21.9017,-12.9454 L -21.8274,-12.8112 L -21.7522,-12.6775 L -21.6761,-12.5443
 L -21.5993,-12.4115 L -21.5217,-12.2792 L -21.4432,-12.1474 L -21.3639,-12.0161 L -21.2839,-11.8853 L -21.203,-11.7549
 L -21.1213,-11.625 L -21.0389,-11.4957 L -20.9556,-11.3669 L -20.8716,-11.2385 L -20.7867,-11.1107 L -20.7011,-10.9835
 L -20.6147,-10.8567 L -20.5276,-10.7305 L -20.4396,-10.6048 L -20.3509,-10.4796 L -20.2614,-10.355 L -20.1712,-10.231
 L -20.0802,-10.1075 L -19.9884,-9.98457 L -19.8959,-9.86221 L -19.8027,-9.74042 L -19.7086,-9.6192 L -19.6139,-9.49857
 L -19.5184,-9.37851 L -19.4222,-9.25903 L -19.3253,-9.14017 L -19.2276,-9.02188 L -19.1292,-8.90421 L -19.03,-8.78714
 L -18.9302,-8.67067 L -18.8297,-8.55482 L -18.7284,-8.43959 L -18.6264,-8.325 L -18.5238,-8.21101 L -18.4204,-8.09767
 L -18.3163,-7.98497 L -18.2116,-7.87289 L -18.1062,-7.76147 L -18.0001,-7.65071 L -17.8933,-7.54059 L -17.7858,-7.43112
 L -17.6777,-7.32233 L -17.5689,-7.21419 L -17.4594,-7.10672 L -17.3493,-6.99992 L -17.2385,-6.89381 L -17.1271,-6.78838
 L -17.015,-6.68364 L -16.9023,-6.57957 L -16.789,-6.47621 L -16.675,-6.37355 L -16.5604,-6.27158 L -16.4452,-6.17032
 L -16.3293,-6.06978 L -16.2128,-5.96994 L -16.0958,-5.8708 L -15.9781,-5.77242 L -15.8598,-5.67473 L -15.741,-5.57777
 L -15.6215,-5.48157 L -15.5014,-5.38608 L -15.3808,-5.29134 L -15.2596,-5.19733 L -15.1378,-5.10406 L -15.0154,-5.01157
 L -14.8925,-4.9198 L -14.769,-4.8288 L -14.6449,-4.73856 L -14.5203,-4.64908 L -14.3952,-4.56038 L -14.2695,-4.47243
 L -14.1433,-4.38525 L -14.0165,-4.29886 L -13.8893,-4.21326 L -13.7614,-4.12842 L -13.6331,-4.04437 L -13.5043,-3.96112
 L -13.3749,-3.87865 L -13.2451,-3.79698 L -13.1147,-3.71611 L -12.9839,-3.63605 L -12.8526,-3.55678 L -12.7207,-3.47832
 L -12.5885,-3.40067 L -12.4557,-3.32384 L -12.3224,-3.24782 L -12.1888,-3.17262 L -12.0546,-3.09824 L -11.92,-3.02469
 L -11.7849,-2.95197 L -11.6494,-2.88007 L -11.5135,-2.80901 L -11.3771,-2.73877 L -11.2403,-2.66939 L -11.103,-2.60083
 L -10.9654,-2.53313 L -10.8273,-2.46628 L -10.6889,-2.40025 L -10.55,-2.3351 L -10.4107,-2.2708 L -10.2711,-2.20734
 L -10.131,-2.14474 L -9.9906,-2.08302 L -9.84979,-2.02214 L -9.70862,-1.96214 L -9.56708,-1.903 L -9.42517,-1.84474
 L -9.28293,-1.78734 L -9.14032,-1.73082 L -8.99738,-1.67517 L -8.85408,-1.62041 L -8.71046,-1.56651 L -8.56651,-1.51352
 L -8.42224,-1.4614 L -8.27765,-1.41016 L -8.13275,-1.3598 L -7.98755,-1.31035 L -7.84204,-1.2618 L -7.69623,-1.21411
 L -7.55014,-1.16734 L -7.40376,-1.12146 L -7.25711,-1.07648 L -7.11018,-1.03241 L -6.96298,-0.989227 L -6.81552,-0.94696
 L -6.66782,-0.905594 L -6.51985,-0.865128 L -6.37163,-0.825577 L -6.22318,-0.786942 L -6.07449,-0.749207 L -5.92558,-0.712402
 L -5.77644,-0.676498 L -5.62709,-0.64151 L -5.47752,-0.607437 L -5.32774,-0.574295 L -5.17778,-0.542053 L -5.0276,-0.510742
 L -4.87724,-0.480362 L -4.72672,-0.450897 L -4.57599,-0.422348 L -4.42509,-0.394745 L -4.27403,-0.368057 L -4.12282,-0.342285
 L -3.97145,-0.317459 L -3.81992,-0.293549 L -3.66826,-0.270584 L -3.51645,-0.248535 L -3.36452,-0.227432 L -3.21245,-0.207245
 L -3.06026,-0.188004 L -2.90796,-0.169693 L -2.75555,-0.152313 L -2.60303,-0.13588 L -2.45042,-0.120377 L -2.29771,-0.105804
 L -2.14493,-0.0921783 L -1.99205,-0.079483 L -1.83911,-0.0677338 L -1.6861,-0.0569153 L -1.533,-0.0470428 L -1.37987,-0.0381012
 L -1.22668,-0.0301056 L -1.07346,-0.023056 L -0.920166,-0.0169373 L -0.766861,-0.0117645 L -0.613525,-0.00752258 L -0.460159,-0.00422668
 L -0.306778,-0.00187683 L -0.153397,-0.000457764 L 0.153397,0.000457764 L 0.306778,0.00187683 L 0.460159,0.00422668 L 0.613525,0.00752258
 L 0.766861,0.0117645 L 0.920166,0.0169373 L 1.07346,0.023056 L 1.22668,0.0301056 L 1.37987,0.0381012 L 1.533,0.0470428
 L 1.6861,0.0569153 L 1.83911,0.0677338 L 1.99205,0.079483 L 2.14493,0.0921783 L 2.29771,0.105804 L 2.45042,0.120377
 L 2.60303,0.13588 L 2.75555,0.152313 L 2.90796,0.169693 L 3.06026,0.188004 L 3.21245,0.207245 L 3.36452,0.227432
 L 3.51645,0.248535 L 3.66826,0.270584 L 3.81992,0.293549 L 3.97145,0.317459 L 4.12282,0.342285 L 4.27403,0.368057
 L 4.42509,0.394745 L 4.57599,0.422348 L 4.72672,0.450897 L 4.87724,0.480362 L 5.0276,0.510742 L 5.17778,0.542053
 L 5.32774,0.574295 L 5.47752,0.607437 L 5.62709,0.64151 L 5.77644,0.676498 L 5.92558,0.712402 L 6.07449,0.749207
 L 6.22318,0.786942 L 6.37163,0.825577 L 6.51985,0.865128 L 6.66782,0.905594 L 6.81552,0.94696 L 6.96298,0.989227
 L 7.11018,1.03241 L 7.25711,1.07648 L 7.40376,1.12146 L 7.55014,1.16734 L 7.69623,1.21411 L 7.84204,1.2618
 L 7.98755,1.31035 L 8.13275,1.3598 L 8.27765,1.41016 L 8.42224,1.4614 L 8.56651,1.51352 L 8.71046,1.56651
 L 8.85408,1.62041 L 8.99738,1.67517 L 9.14032,1.73082 L 9.28293,1.78734 L 9.42517,1.84474 L 9.56708,1.903
 L 9.70862,1.96214 L 9.84979,2.02214 L 9.9906,2.08302 L 10.131,2.14474 L 10.2711,2.20734 L 10.4107,2.2708
 L 10.55,2.3351 L 10.6889,2.40025 L 10.8273,2.46628 L 10.9654,2.53313 L 11.103,2.60083 L 11.2403,2.66939
 L 11.3771,2.73877 L 11.5135,2.80901 L 11.6494,2.88007 L 11.7849,2.95197 L 11.92,3.02469 L 12.0546,3.09824
 L 12.1888,3.17262 L 12.3224,3.24782 L 12.4557,3.32384 L 12.5885,3.40067 L 12.7207,3.47832 L 12.8526,3.55678
 L 12.9839,3.63605 L 13.1147,3.71611 L 13.2451,3.79698 L 13.3749,3.87865 L 13.5043,3.96112 L 13.6331,4.04437
 L 13.7614,4.12842 L 13.8893,4.21326 L 14.0165,4.29886 L 14.1433,4.38525 L 14.2695,4.47243 L 14.3952,4.56038
 L 14.5203,4.64908 L 14.6449,4.73856 L 14.769,4.8288 L 14.8925,4.9198 L 15.0154,5.01157 L 15.1378,5.10406
 L 15.2596,5.19733 L 15.3808,5.29134 L 15.5014,5.38608 L 15.6215,5.48157 L 15.741,5.57777 L 15.8598,5.67473
 L 15.9781,5.77242 L 16.0958,5.8708 L 16.2128,5.96994 L 16.3293,6.06978 L 16.4452,6.17032 L 16.5604,6.27158
 L 16.675,6.37355 L 16.789,6.47621 L 16.9023,6.57957 L 17.015,6.68364 L 17.1271,6.78838 L 17.2385,6.89381
 L 17.3493,6.99992 L 17.4594,7.10672 L 17.5689,7.21419 L 17.6777,7.32233 L 17.7858,7.43112 L 17.8933,7.54059
 L 18.0001,7.65071 L 18.1062,7.76147 L 18.2116,7.87289 L 18.3163,7.98497 L 18.4204,8.09767 L 18.5238,8.21101
 L 18.6264,8.325 L 18.7284,8.43959 L 18.8297,8.55482 L 18.9302,8.67067 L 19.03,8.78714 L 19.1292,8.90421
 L 19.2276,9.02188 L 19.3253,9.14017 L 19.4222,9.25903 L 19.5184,9.37851 L 19.6139,9.49857 L 19.7086,9.6192
 L 19.8027,9.74042 L 19.8959,9.86221 L 19.9884,9.98457 L 20.0802,10.1075 L 20.1712,10.231 L 20.2614,10.355
 L 20.3509,10.4796 L 20.4396,10.6048 L 20.5276,10.7305 L 20.6147,10.8567 L 20.7011,10.9835 L 20.7867,11.1107
 L 20.8716,11.2385 L 20.9556,11.3669 L 21.0389,11.4957 L 21.1213,11.625 L 21.203,11.7549 L 21.2839,11.8853
 L 21.3639,12.0161 L 21.4432,12.1474 L 21.5217,12.2792 L 21.5993,12.4115 L 21.6761,12.5443 L 21.7522,12.6775
 L 21.8274,12.8112 L 21.9017,12.9454 L 21.9753,13.08 L 22.048,13.2151 L 22.1199,13.3506 L 22.191,13.4865
 L 22.2612,13.6229 L 22.3306,13.7597 L 22.3992,13.8969 L 22.4669,14.0346 L 22.5337,14.1727 L 22.5997,14.3111
 L 22.6649,14.45 L 22.7292,14.5892 L 22.7926,14.7289 L 22.8552,14.869 L 22.917,15.0094 L 22.9778,15.1502
 L 23.0378,15.2914 L 23.097,15.4329 L 23.1552,15.5748 L 23.2126,15.7171 L 23.2692,15.8597 L 23.3248,16.0026
 L 23.3796,16.1459 L 23.4335,16.2895 L 23.4865,16.4335 L 23.5386,16.5777 L 23.5898,16.7223 L 23.6402,16.8672
 L 23.6896,17.0124 L 23.7382,17.1579 L 23.7859,17.3038 L 23.8326,17.4498 L 23.8785,17.5962 L 23.9235,17.7429
 L 23.9676,17.8898 L 24.0108,18.037 L 24.053,18.1845 L 24.0944,18.3322 L 24.1349,18.4801 L 24.1744,18.6284
 L 24.213,18.7768 L 24.2508,18.9255 L 24.2876,19.0744 L 24.3235,19.2235 L 24.3585,19.3729 L 24.3925,19.5225
 L 24.4257,19.6722 L 24.4579,19.8222 L 24.4892,19.9724 L 24.5196,20.1227 L 24.5491,20.2733 L 24.5776,20.424
 L 24.6052,20.5749 L 24.6319,20.726 L 24.6577,20.8772 L 24.6825,21.0285 L 24.7064,21.1801 L 24.7294,21.3317
 L 24.7514,21.4835 L 24.7726,21.6355 L 24.7927,21.7875 L 24.812,21.9397 L 24.8303,22.092 L 24.8477,22.2444
 L 24.8641,22.397 L 24.8796,22.5496 L 24.8942,22.7023 L 24.9078,22.8551 L 24.9205,23.0079 L 24.9323,23.1609
 L 24.9431,23.3139 L 24.9529,23.467 L 24.9619,23.6201 L 24.9699,23.7733 L 24.9769,23.9265 L 24.983,24.0798
 L 24.9882,24.2331 L 24.9925,24.3865 L 24.9958,24.5398 L 24.9981,24.6932 L 24.9995,24.8466 L 25,25
 L 24.9995,25.1534 L 24.9981,25.3068 L 24.9958,25.4602 L 24.9925,25.6135 L 24.9882,25.7669 L 24.983,25.9202
 L 24.9769,26.0735 L 24.9699,26.2267 L 24.9619,26.3799 L 24.9529,26.533 L 24.9431,26.6861 L 24.9323,26.8391
 L 24.9205,26.9921 L 24.9078,27.1449 L 24.8942,27.2977 L 24.8796,27.4504 L 24.8641,27.603 L 24.8477,27.7556
 L 24.8303,27.908 L 24.812,28.0603 L 24.7927,28.2124 L 24.7726,28.3645 L 24.7514,28.5164 L 24.7294,28.6683
 L 24.7064,28.8199 L 24.6825,28.9715 L 24.6577,29.1228 L 24.6319,29.274 L 24.6052,29.4251 L 24.5776,29.576
 L 24.5491,29.7267 L 24.5196,29.8772 L 24.4892,30.0276 L 24.4579,30.1778 L 24.4257,30.3277 L 24.3925,30.4775
 L 24.3585,30.6271 L 24.3235,30.7764 L 24.2876,30.9256 L 24.2508,31.0745 L 24.213,31.2232 L 24.1744,31.3716
 L 24.1349,31.5199 L 24.0944,31.6678 L 24.053,31.8155 L 24.0108,31.963 L 23.9676,32.1102 L 23.9235,32.2571
 L 23.8785,32.4038 L 23.8326,32.5501 L 23.7859,32.6962 L 23.7382,32.842 L 23.6896,32.9875 L 23.6402,33.1328
 L 23.5898,33.2776 L 23.5386,33.4222 L 23.4865,33.5665 L 23.4335,33.7105 L 23.3796,33.8541 L 23.3248,33.9974
 L 23.2692,34.1403 L 23.2126,34.2829 L 23.1552,34.4252 L 23.097,34.5671 L 23.0378,34.7086 L 22.9778,34.8498
 L 22.917,34.9906 L 22.8552,35.131 L 22.7926,35.2711 L 22.7292,35.4107 L 22.6649,35.55 L 22.5997,35.6889
 L 22.5337,35.8273 L 22.4669,35.9654 L 22.3992,36.103 L 22.3306,36.2403 L 22.2612,36.3771 L 22.191,36.5135
 L 22.1199,36.6494 L 22.048,36.7849 L 21.9753,36.92 L 21.9017,37.0546 L 21.8274,37.1888 L 21.7522,37.3224
 L 21.6761,37.4557 L 21.5993,37.5885 L 21.5217,37.7207 L 21.4432,37.8526 L 21.3639,37.9839 L 21.2839,38.1147
 L 21.203,38.2451 L 21.1213,38.3749 L 21.0389,38.5043 L 20.9556,38.6331 L 20.8716,38.7614 L 20.7867,38.8893
 L 20.7011,39.0165 L 20.6147,39.1433 L 20.5276,39.2695 L 20.4396,39.3952 L 20.3509,39.5203 L 20.2614,39.6449
 L 20.1712,39.769 L 20.0802,39.8925 L 19.9884,40.0154 L 19.8959,40.1378 L 19.8027,40.2596 L 19.7086,40.3808
 L 19.6139,40.5014 L 19.5184,40.6215 L 19.4222,40.741 L 19.3253,40.8598 L 19.2276,40.9781 L 19.1292,41.0958
 L 19.03,41.2128 L 18.9302,41.3293 L 18.8297,41.4452 L 18.7284,41.5604 L 18.6264,41.675 L 18.5238,41.789
 L 18.4204,41.9023 L 18.3163,42.015 L 18.2116,42.1271 L 18.1062,42.2385 L 18.0001,42.3493 L 17.8933,42.4594
 L 17.7858,42.5689 L 17.6777,42.6777 L 17.5689,42.7858 L 17.4594,42.8933 L 17.3493,43.0001 L 17.2385,43.1062
 L 17.1271,43.2116 L 17.015,43.3163 L 16.9023,43.4204 L 16.789,43.5238 L 16.675,43.6264 L 16.5604,43.7284
 L 16.4452,43.8297 L 16.3293,43.9302 L 16.2128,44.03 L 16.0958,44.1292 L 15.9781,44.2276 L 15.8598,44.3253
 L 15.741,44.4222 L 15.6215,44.5184 L 15.5014,44.6139 L 15.3808,44.7086 L 15.2596,44.8027 L 15.1378,44.8959
 L 15.0154,44.9884 L 14.8925,45.0802 L 14.769,45.1712 L 14.6449,45.2614 L 14.5203,45.3509 L 14.3952,45.4396
 L 14.2695,45.5276 L 14.1433,45.6147 L 14.0165,45.7011 L 13.8893,45.7867 L 13.7614,45.8716 L 13.6331,45.9556
 L 13.5043,46.0389 L 13.3749,46.1213 L 13.2451,46.203 L 13.1147,46.2839 L 12.9839,46.3639 L 12.8526,46.4432
 L 12.7207,46.5217 L 12.5885,46.5993 L 12.4557,46.6761 L 12.3224,46.7522 L 12.1888,46.8274 L 12.0546,46.9017
 L 11.92,46.9753 L 11.7849,47.048 L 11.6494,47.1199 L 11.5135,47.191 L 11.3771,47.2612 L 11.2403,47.3306
 L 11.103,47.3992 L 10.9654,47.4669 L 10.8273,47.5337 L 10.6889,47.5997 L 10.55,47.6649 L 10.4107,47.7292
 L 10.2711,47.7926 L 10.131,47.8552 L 9.9906,47.917 L 9.84979,47.9778 L 9.70862,48.0378 L 9.56708,48.097
 L 9.42517,48.1552 L 9.28293,48.2126 L 9.14032,48.2692 L 8.99738,48.3248 L 8.85408,48.3796 L 8.71046,48.4335
 L 8.56651,48.4865 L 8.42224,48.5386 L 8.27765,48.5898 L 8.13275,48.6402 L 7.98755,48.6896 L 7.84204,48.7382
 L 7.69623,48.7859 L 7.55014,48.8326 L 7.40376,48.8785 L 7.25711,48.9235 L 7.11018,48.9676 L 6.96298,49.0108
 L 6.81552,49.053 L 6.66782,49.0944 L 6.51985,49.1349 L 6.37163,49.1744 L 6.22318,49.213 L 6.07449,49.2508
 L 5.92558,49.2876 L 5.77644,49.3235 L 5.62709,49.3585 L 5.47752,49.3925 L 5.32774,49.4257 L 5.17778,49.4579
 L 5.0276,49.4892 L 4.87724,49.5196 L 4.72672,49.5491 L 4.57599,49.5776 L 4.42509,49.6052 L 4.27403,49.6319
 L 4.12282,49.6577 L 3.97145,49.6825 L 3.81992,49.7064 L 3.66826,49.7294 L 3.51645,49.7514 L 3.36452,49.7726
 L 3.21245,49.7927 L 3.06026,49.812 L 2.90796,49.8303 L 2.75555,49.8477 L 2.60303,49.8641 L 2.45042,49.8796
 L 2.29771,49.8942 L 2.14493,49.9078 L 1.99205,49.9205 L 1.83911,49.9323 L 1.6861,49.9431 L 1.533,49.9529
 L 1.37987,49.9619 L 1.22668,49.9699 L 1.07346,49.9769 L 0.920166,49.983 L 0.766861,49.9882 L 0.613525,49.9925
 L 0.460159,49.9958 L 0.306778,49.9981 L 0.153397,49.9995 L 0,50 z
M 0.0511322,33.3332 L 0.102249,33.3327 L 0.153381,33.3319 L 0.204498,33.3308 L 0.255615,33.3294 L 0.306717,33.3277
 L 0.357819,33.3256 L 0.40889,33.3233 L 0.459946,33.3206 L 0.511002,33.3176 L 0.562027,33.3143 L 0.613037,33.3107
 L 0.664017,33.3068 L 0.714966,33.3026 L 0.7659,33.298 L 0.816803,33.2932 L 0.867676,33.288 L 0.918518,33.2825
 L 0.969315,33.2768 L 1.02008,33.2707 L 1.07082,33.2642 L 1.12151,33.2575 L 1.17215,33.2505 L 1.22275,33.2431
 L 1.2733,33.2355 L 1.32381,33.2275 L 1.37427,33.2192 L 1.42467,33.2106 L 1.47502,33.2017 L 1.52533,33.1925
 L 1.57556,33.183 L 1.62575,33.1732 L 1.67586,33.1631 L 1.72592,33.1526 L 1.77591,33.1419 L 1.82584,33.1308
 L 1.87569,33.1195 L 1.92548,33.1078 L 1.97519,33.0959 L 2.02483,33.0836 L 2.07439,33.071 L 2.12387,33.0581
 L 2.17328,33.045 L 2.2226,33.0315 L 2.27184,33.0177 L 2.32098,33.0036 L 2.37006,32.9892 L 2.41904,32.9745
 L 2.46791,32.9595 L 2.51671,32.9442 L 2.5654,32.9286 L 2.61401,32.9127 L 2.66251,32.8965 L 2.71091,32.8801
 L 2.75922,32.8633 L 2.8074,32.8462 L 2.8555,32.8288 L 2.90349,32.8112 L 2.95135,32.7932 L 2.99911,32.7749
 L 3.04677,32.7564 L 3.0943,32.7375 L 3.14172,32.7184 L 3.18903,32.699 L 3.23621,32.6793 L 3.28326,32.6593
 L 3.3302,32.639 L 3.377,32.6184 L 3.42369,32.5975 L 3.47025,32.5764 L 3.51666,32.555 L 3.56296,32.5332
 L 3.6091,32.5112 L 3.65512,32.489 L 3.701,32.4664 L 3.74675,32.4435 L 3.79236,32.4204 L 3.83781,32.397
 L 3.88313,32.3733 L 3.9283,32.3493 L 3.97331,32.3251 L 4.01819,32.3006 L 4.06291,32.2758 L 4.10748,32.2507
 L 4.15189,32.2254 L 4.19615,32.1998 L 4.24025,32.1739 L 4.28418,32.1477 L 4.32796,32.1213 L 4.37157,32.0946
 L 4.41502,32.0677 L 4.45831,32.0404 L 4.50142,32.013 L 4.54437,31.9852 L 4.58714,31.9572 L 4.62975,31.9289
 L 4.67216,31.9004 L 4.71442,31.8716 L 4.7565,31.8425 L 4.7984,31.8132 L 4.8401,31.7836 L 4.88164,31.7538
 L 4.92299,31.7237 L 4.96416,31.6934 L 5.00513,31.6628 L 5.04591,31.632 L 5.08652,31.6009 L 5.12692,31.5695
 L 5.16713,31.538 L 5.20715,31.5061 L 5.24698,31.4741 L 5.28661,31.4417 L 5.32603,31.4092 L 5.36525,31.3764
 L 5.40428,31.3433 L 5.4431,31.3101 L 5.48172,31.2766 L 5.52013,31.2428 L 5.55832,31.2088 L 5.59631,31.1746
 L 5.63409,31.1401 L 5.67166,31.1054 L 5.70903,31.0705 L 5.74617,31.0354 L 5.78308,31 L 5.81979,30.9644
 L 5.85628,30.9286 L 5.89255,30.8925 L 5.92859,30.8563 L 5.96442,30.8198 L 6.00002,30.7831 L 6.03539,30.7462
 L 6.07053,30.709 L 6.10544,30.6717 L 6.14014,30.6341 L 6.17459,30.5963 L 6.2088,30.5583 L 6.2428,30.5201
 L 6.27655,30.4817 L 6.31006,30.4431 L 6.34334,30.4043 L 6.37639,30.3652 L 6.40918,30.326 L 6.44174,30.2866
 L 6.47406,30.247 L 6.50613,30.2072 L 6.53796,30.1671 L 6.56955,30.1269 L 6.60088,30.0865 L 6.63197,30.0459
 L 6.6628,30.0051 L 6.69339,29.9642 L 6.72372,29.923 L 6.7538,29.8816 L 6.78363,29.8401 L 6.8132,29.7984
 L 6.84251,29.7565 L 6.87157,29.7144 L 6.90038,29.6722 L 6.92891,29.6297 L 6.95718,29.5871 L 6.9852,29.5444
 L 7.01295,29.5014 L 7.04044,29.4583 L 7.06766,29.415 L 7.09462,29.3716 L 7.12131,29.328 L 7.14774,29.2842
 L 7.17389,29.2402 L 7.19977,29.1962 L 7.22537,29.1519 L 7.25072,29.1075 L 7.27579,29.0629 L 7.30058,29.0182
 L 7.32509,28.9733 L 7.34933,28.9283 L 7.37331,28.8831 L 7.39699,28.8378 L 7.42039,28.7924 L 7.44353,28.7467
 L 7.46638,28.701 L 7.48895,28.6551 L 7.51123,28.6091 L 7.53323,28.563 L 7.55496,28.5167 L 7.57639,28.4702
 L 7.59755,28.4237 L 7.61841,28.377 L 7.63898,28.3302 L 7.65927,28.2833 L 7.67928,28.2362 L 7.69899,28.189
 L 7.71841,28.1417 L 7.73755,28.0943 L 7.75638,28.0468 L 7.77493,27.9991 L 7.79318,27.9514 L 7.81116,27.9035
 L 7.82881,27.8555 L 7.84619,27.8074 L 7.86327,27.7592 L 7.88005,27.7109 L 7.89655,27.6625 L 7.91272,27.614
 L 7.92862,27.5654 L 7.94421,27.5167 L 7.9595,27.4679 L 7.9745,27.419 L 7.98918,27.3701 L 8.00359,27.321
 L 8.01767,27.2718 L 8.03146,27.2226 L 8.04495,27.1733 L 8.05814,27.1239 L 8.07101,27.0744 L 8.08359,27.0248
 L 8.09586,26.9752 L 8.10782,26.9255 L 8.11949,26.8757 L 8.13084,26.8258 L 8.14189,26.7759 L 8.15263,26.7259
 L 8.16307,26.6759 L 8.1732,26.6257 L 8.18303,26.5756 L 8.19254,26.5253 L 8.20174,26.475 L 8.21063,26.4247
 L 8.21922,26.3743 L 8.22751,26.3238 L 8.23547,26.2733 L 8.24313,26.2227 L 8.25047,26.1721 L 8.25751,26.1215
 L 8.26424,26.0708 L 8.27066,26.0201 L 8.27676,25.9693 L 8.28255,25.9185 L 8.28802,25.8677 L 8.2932,25.8168
 L 8.29805,25.7659 L 8.3026,25.715 L 8.30682,25.664 L 8.31075,25.613 L 8.31435,25.562 L 8.31764,25.511
 L 8.32062,25.4599 L 8.32329,25.4089 L 8.32564,25.3578 L 8.32768,25.3067 L 8.32941,25.2556 L 8.33081,25.2045
 L 8.33191,25.1534 L 8.3327,25.1022 L 8.33318,25.0511 L 8.33333,25 L 8.33318,24.9489 L 8.3327,24.8977
 L 8.33191,24.8466 L 8.33081,24.7955 L 8.32941,24.7444 L 8.32768,24.6933 L 8.32564,24.6422 L 8.32329,24.5911
 L 8.32062,24.54 L 8.31764,24.489 L 8.31435,24.438 L 8.31075,24.3869 L 8.30682,24.336 L 8.3026,24.285
 L 8.29805,24.2341 L 8.2932,24.1832 L 8.28802,24.1323 L 8.28255,24.0815 L 8.27676,24.0307 L 8.27066,23.9799
 L 8.26424,23.9292 L 8.25751,23.8785 L 8.25047,23.8278 L 8.24313,23.7772 L 8.23547,23.7267 L 8.22751,23.6762
 L 8.21922,23.6257 L 8.21063,23.5753 L 8.20174,23.525 L 8.19254,23.4747 L 8.18303,23.4244 L 8.1732,23.3742
 L 8.16307,23.3241 L 8.15263,23.2741 L 8.14189,23.2241 L 8.13084,23.1741 L 8.11949,23.1243 L 8.10782,23.0745
 L 8.09586,23.0248 L 8.08359,22.9752 L 8.07101,22.9256 L 8.05814,22.8761 L 8.04495,22.8267 L 8.03146,22.7774
 L 8.01767,22.7281 L 8.00359,22.679 L 7.98918,22.6299 L 7.9745,22.5809 L 7.9595,22.5321 L 7.94421,22.4833
 L 7.92862,22.4346 L 7.91272,22.386 L 7.89655,22.3375 L 7.88005,22.2891 L 7.86327,22.2408 L 7.84619,22.1926
 L 7.82881,22.1445 L 7.81116,22.0965 L 7.79318,22.0486 L 7.77493,22.0009 L 7.75638,21.9532 L 7.73755,21.9057
 L 7.71841,21.8583 L 7.69899,21.811 L 7.67928,21.7638 L 7.65927,21.7167 L 7.63898,21.6698 L 7.61841,21.623
 L 7.59755,21.5763 L 7.57639,21.5297 L 7.55496,21.4833 L 7.53323,21.437 L 7.51123,21.3909 L 7.48895,21.3449
 L 7.46638,21.299 L 7.44353,21.2532 L 7.42039,21.2076 L 7.39699,21.1622 L 7.37331,21.1169 L 7.34933,21.0717
 L 7.32509,21.0267 L 7.30058,20.9818 L 7.27579,20.9371 L 7.25072,20.8925 L 7.22537,20.8481 L 7.19977,20.8038
 L 7.17389,20.7597 L 7.14774,20.7158 L 7.12131,20.672 L 7.09462,20.6284 L 7.06766,20.585 L 7.04044,20.5417
 L 7.01295,20.4986 L 6.9852,20.4556 L 6.95718,20.4128 L 6.92891,20.3702 L 6.90038,20.3278 L 6.87157,20.2856
 L 6.84251,20.2435 L 6.8132,20.2016 L 6.78363,20.1599 L 6.7538,20.1183 L 6.72372,20.077 L 6.69339,20.0358
 L 6.6628,19.9949 L 6.63197,19.9541 L 6.60088,19.9135 L 6.56955,19.8731 L 6.53796,19.8329 L 6.50613,19.7928
 L 6.47406,19.753 L 6.44174,19.7134 L 6.40918,19.674 L 6.37639,19.6347 L 6.34334,19.5957 L 6.31006,19.5569
 L 6.27655,19.5183 L 6.2428,19.4799 L 6.2088,19.4417 L 6.17459,19.4037 L 6.14014,19.3659 L 6.10544,19.3283
 L 6.07053,19.291 L 6.03539,19.2538 L 6.00002,19.2169 L 5.96442,19.1802 L 5.92859,19.1437 L 5.89255,19.1074
 L 5.85628,19.0714 L 5.81979,19.0356 L 5.78308,19 L 5.74617,18.9646 L 5.70903,18.9295 L 5.67166,18.8945
 L 5.63409,18.8598 L 5.59631,18.8254 L 5.55832,18.7912 L 5.52013,18.7572 L 5.48172,18.7234 L 5.4431,18.6899
 L 5.40428,18.6566 L 5.36525,18.6236 L 5.32603,18.5908 L 5.28661,18.5582 L 5.24698,18.5259 L 5.20715,18.4939
 L 5.16713,18.462 L 5.12692,18.4304 L 5.08652,18.3991 L 5.04591,18.368 L 5.00513,18.3372 L 4.96416,18.3066
 L 4.92299,18.2763 L 4.88164,18.2462 L 4.8401,18.2164 L 4.7984,18.1868 L 4.7565,18.1575 L 4.71442,18.1284
 L 4.67216,18.0996 L 4.62975,18.0711 L 4.58714,18.0428 L 4.54437,18.0148 L 4.50142,17.987 L 4.45831,17.9595
 L 4.41502,17.9323 L 4.37157,17.9054 L 4.32796,17.8787 L 4.28418,17.8522 L 4.24025,17.8261 L 4.19615,17.8002
 L 4.15189,17.7746 L 4.10748,17.7493 L 4.06291,17.7242 L 4.01819,17.6994 L 3.97331,17.6749 L 3.9283,17.6507
 L 3.88313,17.6267 L 3.83781,17.603 L 3.79236,17.5796 L 3.74675,17.5565 L 3.701,17.5336 L 3.65512,17.511
 L 3.6091,17.4888 L 3.56296,17.4668 L 3.51666,17.445 L 3.47025,17.4236 L 3.42369,17.4024 L 3.377,17.3816
 L 3.3302,17.361 L 3.28326,17.3407 L 3.23621,17.3207 L 3.18903,17.301 L 3.14172,17.2816 L 3.0943,17.2624
 L 3.04677,17.2436 L 2.99911,17.2251 L 2.95135,17.2068 L 2.90349,17.1888 L 2.8555,17.1712 L 2.8074,17.1538
 L 2.75922,17.1367 L 2.71091,17.1199 L 2.66251,17.1034 L 2.61401,17.0873 L 2.5654,17.0714 L 2.51671,17.0558
 L 2.46791,17.0405 L 2.41904,17.0255 L 2.37006,17.0108 L 2.32098,16.9964 L 2.27184,16.9823 L 2.2226,16.9685
 L 2.17328,16.955 L 2.12387,16.9418 L 2.07439,16.929 L 2.02483,16.9164 L 1.97519,16.9041 L 1.92548,16.8922
 L 1.87569,16.8805 L 1.82584,16.8691 L 1.77591,16.8581 L 1.72592,16.8474 L 1.67586,16.8369 L 1.62575,16.8268
 L 1.57556,16.817 L 1.52533,16.8074 L 1.47502,16.7982 L 1.42467,16.7894 L 1.37427,16.7808 L 1.32381,16.7725
 L 1.2733,16.7645 L 1.22275,16.7569 L 1.17215,16.7495 L 1.12151,16.7425 L 1.07082,16.7357 L 1.02008,16.7293
 L 0.969315,16.7232 L 0.918518,16.7174 L 0.867676,16.712 L 0.816803,16.7068 L 0.7659,16.7019 L 0.714966,16.6974
 L 0.664017,16.6932 L 0.613037,16.6892 L 0.562027,16.6856 L 0.511002,16.6823 L 0.459946,16.6794 L 0.40889,16.6767
 L 0.357819,16.6743 L 0.306717,16.6723 L 0.255615,16.6706 L 0.204498,16.6692 L 0.153381,16.6681 L 0.102249,16.6673
 L 0.0511322,16.6668 L 0,16.6667 L -0.0511322,16.6668 L -0.102249,16.6673 L -0.153381,16.6681 L -0.204498,16.6692
 L -0.255615,16.6706 L -0.306717,16.6723 L -0.357819,16.6743 L -0.40889,16.6767 L -0.459946,16.6794 L -0.511002,16.6823
 L -0.562027,16.6856 L -0.613037,16.6892 L -0.664017,16.6932 L -0.714966,16.6974 L -0.7659,16.7019 L -0.816803,16.7068
 L -0.867676,16.712 L -0.918518,16.7174 L -0.969315,16.7232 L -1.02008,16.7293 L -1.07082,16.7357 L -1.12151,16.7425
 L -1.17215,16.7495 L -1.22275,16.7569 L -1.2733,16.7645 L -1.32381,16.7725 L -1.37427,16.7808 L -1.42467,16.7894
 L -1.47502,16.7982 L -1.52533,16.8074 L -1.57556,16.817 L -1.62575,16.8268 L -1.67586,16.8369 L -1.72592,16.8474
 L -1.77591,16.8581 L -1.82584,16.8691 L -1.87569,16.8805 L -1.92548,16.8922 L -1.97519,16.9041 L -2.02483,16.9164
 L -2.07439,16.929 L -2.12387,16.9418 L -2.17328,16.955 L -2.2226,16.9685 L -2.27184,16.9823 L -2.32098,16.9964
 L -2.37006,17.0108 L -2.41904,17.0255 L -2.46791,17.0405 L -2.51671,17.0558 L -2.5654,17.0714 L -2.61401,17.0873
 L -2.66251,17.1034 L -2.71091,17.1199 L -2.75922,17.1367 L -2.8074,17.1538 L -2.8555,17.1712 L -2.90349,17.1888
 L -2.95135,17.2068 L -2.99911,17.2251 L -3.04677,17.2436 L -3.0943,17.2624 L -3.14172,17.2816 L -3.18903,17.301
 L -3.23621,17.3207 L -3.28326,17.3407 L -3.3302,17.361 L -3.377,17.3816 L -3.42369,17.4024 L -3.47025,17.4236
 L -3.51666,17.445 L -3.56296,17.4668 L -3.6091,17.4888 L -3.65512,17.511 L -3.701,17.5336 L -3.74675,17.5565
 L -3.79236,17.5796 L -3.83781,17.603 L -3.88313,17.6267 L -3.9283,17.6507 L -3.97331,17.6749 L -4.01819,17.6994
 L -4.06291,17.7242 L -4.10748,17.7493 L -4.15189,17.7746 L -4.19615,17.8002 L -4.24025,17.8261 L -4.28418,17.8522
 L -4.32796,17.8787 L -4.37157,17.9054 L -4.41502,17.9323 L -4.45831,17.9595 L -4.50142,17.987 L -4.54437,18.0148
 L -4.58714,18.0428 L -4.62975,18.0711 L -4.67216,18.0996 L -4.71442,18.1284 L -4.7565,18.1575 L -4.7984,18.1868
 L -4.8401,18.2164 L -4.88164,18.2462 L -4.92299,18.2763 L -4.96416,18.3066 L -5.00513,18.3372 L -5.04591,18.368
 L -5.08652,18.3991 L -5.12692,18.4304 L -5.16713,18.462 L -5.20715,18.4939 L -5.24698,18.5259 L -5.28661,18.5582
 L -5.32603,18.5908 L -5.36525,18.6236 L -5.40428,18.6566 L -5.4431,18.6899 L -5.48172,18.7234 L -5.52013,18.7572
 L -5.55832,18.7912 L -5.59631,18.8254 L -5.63409,18.8598 L -5.67166,18.8945 L -5.70903,18.9295 L -5.74617,18.9646
 L -5.78308,19 L -5.81979,19.0356 L -5.85628,19.0714 L -5.89255,19.1074 L -5.92859,19.1437 L -5.96442,19.1802
 L -6.00002,19.2169 L -6.03539,19.2538 L -6.07053,19.291 L -6.10544,19.3283 L -6.14014,19.3659 L -6.17459,19.4037
 L -6.2088,19.4417 L -6.2428,19.4799 L -6.27655,19.5183 L -6.31006,19.5569 L -6.34334,19.5957 L -6.37639,19.6347
 L -6.40918,19.674 L -6.44174,19.7134 L -6.47406,19.753 L -6.50613,19.7928 L -6.53796,19.8329 L -6.56955,19.8731
 L -6.60088,19.9135 L -6.63197,19.9541 L -6.6628,19.9949 L -6.69339,20.0358 L -6.72372,20.077 L -6.7538,20.1183
 L -6.78363,20.1599 L -6.8132,20.2016 L -6.84251,20.2435 L -6.87157,20.2856 L -6.90038,20.3278 L -6.92891,20.3702
 L -6.95718,20.4128 L -6.9852,20.4556 L -7.01295,20.4986 L -7.04044,20.5417 L -7.06766,20.585 L -7.09462,20.6284
 L -7.12131,20.672 L -7.14774,20.7158 L -7.17389,20.7597 L -7.19977,20.8038 L -7.22537,20.8481 L -7.25072,20.8925
 L -7.27579,20.9371 L -7.30058,20.9818 L -7.32509,21.0267 L -7.34933,21.0717 L -7.37331,21.1169 L -7.39699,21.1622
 L -7.42039,21.2076 L -7.44353,21.2532 L -7.46638,21.299 L -7.48895,21.3449 L -7.51123,21.3909 L -7.53323,21.437
 L -7.55496,21.4833 L -7.57639,21.5297 L -7.59755,21.5763 L -7.61841,21.623 L -7.63898,21.6698 L -7.65927,21.7167
 L -7.67928,21.7638 L -7.69899,21.811 L -7.71841,21.8583 L -7.73755,21.9057 L -7.75638,21.9532 L -7.77493,22.0009
 L -7.79318,22.0486 L -7.81116,22.0965 L -7.82881,22.1445 L -7.84619,22.1926 L -7.86327,22.2408 L -7.88005,22.2891
 L -7.89655,22.3375 L -7.91272,22.386 L -7.92862,22.4346 L -7.94421,22.4833 L -7.9595,22.5321 L -7.9745,22.5809
 L -7.98918,22.6299 L -8.00359,22.679 L -8.01767,22.7281 L -8.03146,22.7774 L -8.04495,22.8267 L -8.05814,22.8761
 L -8.07101,22.9256 L -8.08359,22.9752 L -8.09586,23.0248 L -8.10782,23.0745 L -8.11949,23.1243 L -8.13084,23.1741
 L -8.14189,23.2241 L -8.15263,23.2741 L -8.16307,23.3241 L -8.1732,23.3742 L -8.18303,23.4244 L -8.19254,23.4747
 L -8.20174,23.525 L -8.21063,23.5753 L -8.21922,23.6257 L -8.22751,23.6762 L -8.23547,23.7267 L -8.24313,23.7772
 L -8.25047,23.8278 L -8.25751,23.8785 L -8.26424,23.9292 L -8.27066,23.9799 L -8.27676,24.0307 L -8.28255,24.0815
 L -8.28802,24.1323 L -8.2932,24.1832 L -8.29805,24.2341 L -8.3026,24.285 L -8.30682,24.336 L -8.31075,24.3869
 L -8.31435,24.438 L -8.31764,24.489 L -8.32062,24.54 L -8.32329,24.5911 L -8.32564,24.6422 L -8.32768,24.6933
 L -8.32941,24.7444 L -8.33081,24.7955 L -8.33191,24.8466 L -8.3327,24.8977 L -8.33318,24.9489 L -8.33333,25
 L -8.33318,25.0511 L -8.3327,25.1022 L -8.33191,25.1534 L -8.33081,25.2045 L -8.32941,25.2556 L -8.32768,25.3067
 L -8.32564,25.3578 L -8.32329,25.4089 L -8.32062,25.4599 L -8.31764,25.511 L -8.31435,25.562 L -8.31075,25.613
 L -8.30682,25.664 L -8.3026,25.715 L -8.29805,25.7659 L -8.2932,25.8168 L -8.28802,25.8677 L -8.28255,25.9185
 L -8.27676,25.9693 L -8.27066,26.0201 L -8.26424,26.0708 L -8.25751,26.1215 L -8.25047,26.1721 L -8.24313,26.2227
 L -8.23547,26.2733 L -8.22751,26.3238 L -8.21922,26.3743 L -8.21063,26.4247 L -8.20174,26.475 L -8.19254,26.5253
 L -8.18303,26.5756 L -8.1732,26.6257 L -8.16307,26.6759 L -8.15263,26.7259 L -8.14189,26.7759 L -8.13084,26.8258
 L -8.11949,26.8757 L -8.10782,26.9255 L -8.09586,26.9752 L -8.08359,27.0248 L -8.07101,27.0744 L -8.05814,27.1239
 L -8.04495,27.1733 L -8.03146,27.2226 L -8.01767,27.2718 L -8.00359,27.321 L -7.98918,27.3701 L -7.9745,27.419
 L -7.9595,27.4679 L -7.94421,27.5167 L -7.92862,27.5654 L -7.91272,27.614 L -7.89655,27.6625 L -7.88005,27.7109
 L -7.86327,27.7592 L -7.84619,27.8074 L -7.82881,27.8555 L -7.81116,27.9035 L -7.79318,27.9514 L -7.77493,27.9991
 L -7.75638,28.0468 L -7.73755,28.0943 L -7.71841,28.1417 L -7.69899,28.189 L -7.67928,28.2362 L -7.65927,28.2833
 L -7.63898,28.3302 L -7.61841,28.377 L -7.59755,28.4237 L -7.57639,28.4702 L -7.55496,28.5167 L -7.53323,28.563
 L -7.51123,28.6091 L -7.48895,28.6551 L -7.46638,28.701 L -7.44353,28.7467 L -7.42039,28.7924 L -7.39699,28.8378
 L -7.37331,28.8831 L -7.34933,28.9283 L -7.32509,28.9733 L -7.30058,29.0182 L -7.27579,29.0629 L -7.25072,29.1075
 L -7.22537,29.1519 L -7.19977,29.1962 L -7.17389,29.2402 L -7.14774,29.2842 L -7.12131,29.328 L -7.09462,29.3716
 L -7.06766,29.415 L -7.04044,29.4583 L -7.01295,29.5014 L -6.9852,29.5444 L -6.95718,29.5871 L -6.92891,29.6297
 L -6.90038,29.6722 L -6.87157,29.7144 L -6.84251,29.7565 L -6.8132,29.7984 L -6.78363,29.8401 L -6.7538,29.8816
 L -6.72372,29.923 L -6.69339,29.9642 L -6.6628,30.0051 L -6.63197,30.0459 L -6.60088,30.0865 L -6.56955,30.1269
 L -6.53796,30.1671 L -6.50613,30.2072 L -6.47406,30.247 L -6.44174,30.2866 L -6.40918,30.326 L -6.37639,30.3652
 L -6.34334,30.4043 L -6.31006,30.4431 L -6.27655,30.4817 L -6.2428,30.5201 L -6.2088,30.5583 L -6.17459,30.5963
 L -6.14014,30.6341 L -6.10544,30.6717 L -6.07053,30.709 L -6.03539,30.7462 L -6.00002,30.7831 L -5.96442,30.8198
 L -5.92859,30.8563 L -5.89255,30.8925 L -5.85628,30.9286 L -5.81979,30.9644 L -5.78308,31 L -5.74617,31.0354
 L -5.70903,31.0705 L -5.67166,31.1054 L -5.63409,31.1401 L -5.59631,31.1746 L -5.55832,31.2088 L -5.52013,31.2428
 L -5.48172,31.2766 L -5.4431,31.3101 L -5.40428,31.3433 L -5.36525,31.3764 L -5.32603,31.4092 L -5.28661,31.4417
 L -5.24698,31.4741 L -5.20715,31.5061 L -5.16713,31.538 L -5.12692,31.5695 L -5.08652,31.6009 L -5.04591,31.632
 L -5.00513,31.6628 L -4.96416,31.6934 L -4.92299,31.7237 L -4.88164,31.7538 L -4.8401,31.7836 L -4.7984,31.8132
 L -4.7565,31.8425 L -4.71442,31.8716 L -4.67216,31.9004 L -4.62975,31.9289 L -4.58714,31.9572 L -4.54437,31.9852
 L -4.50142,32.013 L -4.45831,32.0404 L -4.41502,32.0677 L -4.37157,32.0946 L -4.32796,32.1213 L -4.28418,32.1477
 L -4.24025,32.1739 L -4.19615,32.1998 L -4.15189,32.2254 L -4.10748,32.2507 L -4.06291,32.2758 L -4.01819,32.3006
 L -3.97331,32.3251 L -3.9283,32.3493 L -3.88313,32.3733 L -3.83781,32.397 L -3.79236,32.4204 L -3.74675,32.4435
 L -3.701,32.4664 L -3.65512,32.489 L -3.6091,32.5112 L -3.56296,32.5332 L -3.51666,32.555 L -3.47025,32.5764
 L -3.42369,32.5975 L -3.377,32.6184 L -3.3302,32.639 L -3.28326,32.6593 L -3.23621,32.6793 L -3.18903,32.699
 L -3.14172,32.7184 L -3.0943,32.7375 L -3.04677,32.7564 L -2.99911,32.7749 L -2.95135,32.7932 L -2.90349,32.8112
 L -2.8555,32.8288 L -2.8074,32.8462 L -2.75922,32.8633 L -2.71091,32.8801 L -2.66251,32.8965 L -2.61401,32.9127
 L -2.5654,32.9286 L -2.51671,32.9442 L -2.46791,32.9595 L -2.41904,32.9745 L -2.37006,32.9892 L -2.32098,33.0036
 L -2.27184,33.0177 L -2.2226,33.0315 L -2.17328,33.045 L -2.12387,33.0581 L -2.07439,33.071 L -2.02483,33.0836
 L -1.97519,33.0959 L -1.92548,33.1078 L -1.87569,33.1195 L -1.82584,33.1308 L -1.77591,33.1419 L -1.72592,33.1526
 L -1.67586,33.1631 L -1.62575,33.1732 L -1.57556,33.183 L -1.52533,33.1925 L -1.47502,33.2017 L -1.42467,33.2106
 L -1.37427,33.2192 L -1.32381,33.2275 L -1.2733,33.2355 L -1.22275,33.2431 L -1.17215,33.2505 L -1.12151,33.2575
 L -1.07082,33.2642 L -1.02008,33.2707 L -0.969315,33.2768 L -0.918518,33.2825 L -0.867676,33.288 L -0.816803,33.2932
 L -0.7659,33.298 L -0.714966,33.3026 L -0.664017,33.3068 L -0.613037,33.3107 L -0.562027,33.3143 L -0.511002,33.3176
 L -0.459946,33.3206 L -0.40889,33.3233 L -0.357819,33.3256 L -0.306717,33.3277 L -0.255615,33.3294 L -0.204498,33.3308
 L -0.153381,33.3319 L -0.102249,33.3327 L -0.0511322,33.3332 L 0,33.3333 z
" stroke="black" fill="lightgray" stroke-width="0.5"/>
</svg>
